<?xml version="1.0" standalone="no"?>
<!DOCTYPE svg PUBLIC "-//W3C//DTD SVG 20010904//EN"
 "http://www.w3.org/TR/2001/REC-SVG-20010904/DTD/svg10.dtd">
<svg version="1.0" xmlns="http://www.w3.org/2000/svg"
 width="800.000000pt" height="800.000000pt" viewBox="0 0 800.000000 800.000000"
 preserveAspectRatio="xMidYMid meet">
<metadata>
Created by potrace 1.14, written by Peter Selinger 2001-2017
</metadata>
<g transform="translate(0.000000,800.000000) scale(0.100000,-0.100000)"
fill="#000000" stroke="none">
<path d="M4166 7411 c-3 -5 1 -14 9 -21 12 -10 15 -10 15 3 0 19 -16 31 -24
18z"/>
<path d="M4241 7391 c-9 -6 -10 -11 -2 -15 6 -4 11 -2 11 4 0 6 4 8 10 5 18
-11 50 -14 50 -4 0 5 -6 9 -14 9 -8 0 -20 2 -28 5 -7 3 -19 1 -27 -4z"/>
<path d="M3704 7369 c-3 -5 5 -9 18 -9 13 0 29 -5 35 -11 6 -6 13 -7 16 -1 4
5 -9 14 -28 19 -21 7 -37 7 -41 2z"/>
<path d="M3538 7358 c5 -5 16 -8 23 -6 8 3 3 7 -10 11 -17 4 -21 3 -13 -5z"/>
<path d="M3856 7338 c2 -3 -14 -4 -36 -1 -28 4 -40 2 -40 -7 0 -9 -12 -10 -45
-6 -29 5 -45 4 -45 -3 0 -6 -5 -11 -11 -11 -5 0 -8 4 -5 8 6 9 -29 9 -54 -1
-17 -6 -61 -16 -107 -24 -18 -3 -30 -9 -28 -14 3 -4 11 -6 19 -3 7 3 13 -2 13
-9 0 -11 -7 -13 -29 -7 -15 5 -28 5 -28 0 0 -12 26 -19 85 -21 28 -1 61 -7 75
-12 14 -5 38 -9 54 -9 18 1 25 -3 19 -9 -6 -6 -46 -3 -109 6 -54 8 -124 14
-154 14 l-55 -1 45 -9 c53 -10 141 -37 122 -38 -7 -1 -11 -5 -7 -11 3 -5 -7
-8 -25 -5 -17 2 -28 0 -25 -6 10 -15 82 -10 99 7 15 14 16 14 16 0 0 -9 5 -16
11 -16 5 0 8 4 5 8 -3 5 36 2 85 -6 87 -13 145 -10 135 7 -3 4 -24 9 -48 10
-24 1 -59 5 -78 10 l-35 8 28 13 c27 13 28 14 8 22 -21 7 -29 28 -11 28 18 0
11 18 -10 25 -24 8 -62 -3 -55 -15 7 -11 -64 -1 -85 12 -11 6 -5 8 18 5 17 -2
32 -1 32 3 0 3 10 6 23 7 12 1 42 5 67 9 25 4 83 7 130 6 47 0 77 2 68 4 -10
3 -18 10 -18 16 0 5 7 8 15 4 8 -3 15 -1 15 5 0 6 4 8 9 4 5 -3 12 -1 16 5 4
6 -9 9 -34 7 -21 -1 -37 -5 -35 -9z m-22 -16 c3 -5 -8 -9 -25 -9 -19 0 -25 3
-17 9 17 10 35 10 42 0z m-147 -58 c-3 -3 -12 -4 -19 -1 -8 3 -5 6 6 6 11 1
17 -2 13 -5z"/>
<path d="M4058 7305 c-26 -6 -49 -9 -50 -5 -2 4 -23 4 -48 0 l-45 -7 35 -7
c43 -8 180 -4 180 7 0 4 -3 7 -6 6 -4 0 -10 4 -13 9 -4 6 -24 5 -53 -3z"/>
<path d="M4228 7293 c6 -2 18 -2 25 0 6 3 1 5 -13 5 -14 0 -19 -2 -12 -5z"/>
<path d="M4620 7280 c0 -5 7 -10 16 -10 8 0 12 5 9 10 -3 6 -10 10 -16 10 -5
0 -9 -4 -9 -10z"/>
<path d="M3228 7273 c7 -3 16 -2 19 1 4 3 -2 6 -13 5 -11 0 -14 -3 -6 -6z"/>
<path d="M4063 7263 c15 -2 37 -2 50 0 12 2 0 4 -28 4 -27 0 -38 -2 -22 -4z"/>
<path d="M3358 7253 c7 -3 16 -2 19 1 4 3 -2 6 -13 5 -11 0 -14 -3 -6 -6z"/>
<path d="M3403 7253 c9 -2 23 -2 30 0 6 3 -1 5 -18 5 -16 0 -22 -2 -12 -5z"/>
<path d="M3928 7253 c12 -2 30 -2 40 0 9 3 -1 5 -23 4 -22 0 -30 -2 -17 -4z"/>
<path d="M3070 7198 c0 -9 -6 -18 -12 -20 -14 -5 -19 -58 -7 -58 4 0 16 -3 26
-7 15 -6 16 -4 6 9 -7 8 -10 18 -6 21 3 4 1 7 -5 7 -7 0 -12 5 -12 10 0 21 20
9 26 -15 3 -14 10 -22 15 -19 5 3 6 -2 3 -10 -7 -19 12 -22 20 -3 4 9 2 -18
-4 -43 0 -3 -5 3 -11 13 -5 9 -19 17 -30 17 -11 0 -28 4 -37 9 -9 5 -39 12
-66 16 -38 6 -48 5 -44 -5 2 -7 11 -14 20 -16 8 -1 28 -9 44 -18 l29 -17 -35
7 c-19 3 -42 12 -50 19 -22 19 -82 26 -101 12 -8 -7 -18 -22 -21 -34 -5 -19
-2 -23 17 -23 13 0 25 4 27 8 2 5 26 6 53 2 28 -4 43 -8 35 -9 -13 -1 -13 -2
0 -11 9 -6 17 -5 22 3 6 9 10 9 16 -1 5 -7 16 -10 24 -7 9 4 31 -3 49 -15 l34
-21 -30 5 c-16 3 -50 8 -75 11 -25 4 -56 14 -69 22 -16 10 -34 13 -59 8 l-35
-7 29 -23 c16 -14 40 -25 54 -25 20 0 22 -2 10 -10 -8 -5 -10 -10 -5 -10 6 -1
29 -5 53 -9 23 -5 42 -5 42 0 0 4 -15 10 -32 12 -18 2 1 2 42 0 41 -3 83 -7
93 -9 21 -6 23 -31 2 -31 -8 0 -15 4 -15 9 0 5 -7 2 -16 -6 -8 -9 -22 -16 -30
-16 -8 0 -12 -4 -9 -10 3 -5 0 -10 -7 -11 -7 0 -2 -5 11 -10 l25 -10 -23 -15
c-12 -9 -25 -13 -28 -10 -4 3 0 6 8 6 8 1 1 8 -14 16 -16 9 -31 13 -34 10 -3
-3 2 -8 11 -12 33 -13 15 -22 -25 -13 -44 10 -55 7 -44 -11 4 -7 18 -10 30 -8
17 4 22 1 18 -10 -5 -11 -1 -13 14 -8 14 4 23 1 27 -9 7 -19 -11 -19 -48 0
-16 9 -34 14 -40 12 -6 -2 -22 8 -36 21 -25 25 -25 25 -2 19 12 -3 20 -2 17 3
-3 4 -16 10 -30 12 -13 3 -22 1 -19 -3 9 -15 -5 -10 -34 11 -15 11 -43 26 -63
34 -33 14 -38 14 -57 -4 -11 -10 -23 -16 -28 -12 -4 4 -4 1 0 -6 4 -7 10 -10
14 -8 4 2 16 -3 27 -11 15 -12 16 -14 3 -10 -9 3 -18 1 -20 -5 -2 -6 -16 0
-31 14 -17 16 -25 31 -21 42 4 12 0 16 -15 16 -19 0 -25 -10 -22 -32 0 -4 -6
-19 -14 -35 -13 -25 -13 -28 3 -33 21 -6 23 -42 2 -52 -8 -4 -35 -7 -60 -8
l-45 -1 24 -20 c29 -24 22 -33 -24 -32 -36 1 -47 -10 -19 -21 8 -3 12 -10 9
-16 -4 -6 -12 -7 -18 -3 -8 4 -7 1 1 -9 11 -14 10 -16 -8 -11 -16 4 -23 0 -27
-16 -3 -11 -11 -21 -19 -21 -7 0 -11 6 -8 14 3 8 -3 19 -15 25 -17 10 -20 9
-15 -4 4 -8 1 -15 -6 -15 -6 0 -8 -5 -5 -10 4 -6 1 -9 -6 -8 -7 2 -18 -7 -24
-19 -5 -13 -13 -23 -17 -23 -5 0 -8 -6 -8 -13 0 -7 -15 -33 -32 -57 -18 -24
-27 -40 -19 -36 8 5 12 5 9 0 -23 -51 -34 -70 -45 -77 -10 -6 -26 -56 -24 -72
1 -3 -5 -18 -13 -33 -8 -15 -16 -42 -19 -60 -3 -18 -11 -39 -17 -47 -9 -11 -8
-18 4 -30 20 -20 20 -17 -5 -59 -23 -39 -32 -46 -23 -18 5 14 4 15 -5 2 -6 -8
-8 -23 -5 -33 3 -11 1 -16 -7 -15 -13 3 -20 -15 -36 -88 -7 -29 -6 -41 2 -41
7 0 13 21 14 51 2 47 19 90 22 56 1 -8 2 -22 3 -30 1 -8 -4 -26 -10 -40 -6
-14 -9 -31 -7 -37 3 -8 -5 -13 -19 -14 -21 -1 -21 -2 -3 -7 16 -6 20 -16 20
-53 0 -39 3 -45 18 -41 17 4 20 16 18 62 -2 28 23 95 39 105 6 4 7 11 4 17 -4
7 -2 8 4 4 7 -4 12 -3 12 2 0 5 11 15 25 22 14 7 25 17 25 22 0 5 -4 6 -10 3
-16 -10 -11 1 7 16 11 10 14 10 9 2 -5 -9 -1 -13 10 -13 15 0 14 -4 -7 -27
-13 -14 -18 -23 -11 -19 8 5 7 -4 -4 -28 -10 -19 -20 -33 -24 -31 -9 5 -6 -27
3 -42 4 -6 2 -15 -4 -18 -5 -4 -8 -13 -5 -20 2 -7 -2 -16 -10 -19 -12 -4 -14
-14 -9 -36 5 -22 3 -30 -5 -28 -7 2 -14 -8 -15 -22 -4 -35 -9 -52 -23 -77 -7
-12 -9 -28 -6 -36 3 -8 0 -18 -7 -23 -8 -5 -10 -3 -4 6 5 8 4 11 -3 7 -5 -4
-8 -15 -5 -25 2 -10 -2 -30 -11 -46 -9 -17 -12 -42 -9 -62 3 -19 1 -39 -4 -46
-5 -7 -11 -107 -12 -223 -1 -115 -3 -232 -5 -260 -1 -27 1 -66 5 -85 4 -19 10
-71 13 -115 3 -45 10 -103 17 -130 6 -28 13 -57 14 -65 1 -8 5 -22 8 -30 11
-32 28 -115 37 -182 5 -39 12 -74 17 -77 4 -3 8 -10 8 -16 0 -26 29 -104 36
-99 5 3 9 -13 9 -35 0 -27 11 -62 34 -104 19 -35 37 -80 41 -100 4 -21 11 -40
16 -43 5 -3 9 -14 9 -24 0 -10 8 -25 19 -32 25 -18 38 -65 51 -178 10 -94 71
-294 78 -257 2 9 8 17 13 17 9 0 14 -40 11 -90 -1 -22 0 -23 9 -7 6 9 15 14
21 11 7 -5 9 0 6 14 -4 12 -2 20 3 16 5 -3 9 -1 9 5 0 5 -9 13 -20 16 -15 5
-20 15 -20 42 0 32 2 34 18 22 15 -13 16 -12 4 3 -8 9 -11 22 -7 27 8 13 -13
53 -24 46 -5 -2 -14 2 -21 10 -7 8 -9 15 -4 15 5 0 4 4 -1 8 -16 11 -35 55
-34 77 1 11 -1 40 -5 65 l-6 45 16 -50 c21 -65 42 -108 82 -174 41 -67 55 -59
17 10 -21 40 -25 53 -14 59 10 7 11 20 1 72 -62 314 -72 493 -29 520 18 11 31
-8 71 -112 21 -52 42 -100 48 -107 5 -7 7 -17 3 -23 -4 -6 -2 -9 3 -8 6 2 35
-23 66 -55 31 -31 61 -57 66 -57 4 0 30 -9 56 -21 36 -15 45 -22 34 -29 -20
-13 -6 -23 21 -15 17 6 19 9 8 17 -10 7 -7 8 11 4 14 -3 42 -6 63 -6 49 0 39
-20 -11 -21 -23 -1 -29 -3 -14 -6 16 -3 22 -11 22 -30 0 -23 3 -25 43 -22 40
4 43 2 39 -18 -4 -21 -1 -23 38 -23 39 0 42 2 38 23 -4 20 -1 22 39 18 37 -3
43 -6 43 -26 0 -13 7 -25 15 -29 20 -7 20 -95 0 -122 -8 -10 -15 -39 -15 -64
-1 -57 -18 -80 -61 -80 -22 0 -42 -9 -61 -27 -23 -21 -31 -25 -37 -14 -7 10
-11 9 -22 -7 -19 -26 -13 -112 7 -112 8 0 14 7 14 15 0 11 11 15 40 15 22 0
40 5 40 10 0 6 18 10 40 10 l40 0 0 55 c0 30 5 55 10 55 6 0 10 -33 10 -80 0
-47 -4 -80 -10 -80 -5 0 -10 -5 -10 -11 0 -6 -12 -21 -28 -34 -24 -20 -27 -29
-24 -69 2 -25 8 -46 12 -46 11 0 40 -58 40 -80 0 -20 61 -80 82 -80 21 0 27
-17 34 -99 6 -62 5 -70 -17 -89 -31 -29 -107 -30 -140 -2 -20 16 -22 21 -9 29
11 8 8 12 -15 21 -17 6 -41 9 -55 7 -14 -3 -48 -2 -76 2 -49 7 -52 6 -50 -14
1 -15 6 -20 18 -17 10 2 19 -4 23 -17 8 -26 21 -27 37 -1 13 21 38 27 38 10 0
-6 -7 -13 -15 -16 -22 -9 -20 -54 3 -54 11 0 18 -7 18 -20 0 -10 -2 -17 -4
-15 -2 2 -10 -2 -17 -8 -17 -15 0 -37 27 -37 17 0 18 -3 8 -15 -10 -13 -9 -15
9 -15 11 0 21 -4 21 -10 0 -5 -4 -10 -10 -10 -17 0 -11 -20 15 -48 28 -30 32
-47 10 -38 -10 4 -15 -1 -15 -14 0 -11 5 -20 10 -20 6 0 10 -5 10 -11 0 -6 -6
-9 -13 -6 -8 3 -14 -3 -14 -15 -2 -16 1 -17 13 -7 23 19 26 5 6 -22 -11 -13
-17 -30 -15 -37 3 -7 -5 -33 -16 -57 -12 -25 -21 -48 -21 -53 0 -15 -25 -62
-33 -62 -5 0 -6 -4 -3 -9 3 -5 -1 -15 -10 -22 -26 -22 -7 57 32 129 35 65 42
88 22 76 -6 -4 -4 3 5 15 8 13 13 30 10 37 -6 17 -45 18 -61 2 -7 -7 -12 -8
-12 -4 0 5 -12 -8 -26 -29 -14 -21 -23 -46 -21 -56 3 -10 0 -20 -7 -22 -10 -3
-16 -31 -16 -84 0 -12 -5 -25 -10 -28 -9 -6 -14 27 -11 80 0 14 -1 16 -6 5 -3
-8 -9 -17 -13 -20 -15 -11 -22 -50 -8 -50 10 0 9 -3 -2 -10 -9 -6 -11 -13 -5
-17 6 -5 11 -33 13 -63 2 -30 10 -82 18 -115 9 -33 16 -75 16 -93 0 -17 4 -35
9 -38 5 -3 9 -18 9 -34 0 -27 44 -144 62 -165 4 -5 8 -22 8 -37 0 -16 6 -28
13 -28 8 0 7 -4 -3 -10 -8 -5 -10 -10 -5 -10 15 0 45 -58 45 -87 0 -20 4 -24
19 -20 15 4 19 0 18 -17 -2 -54 4 -72 33 -91 26 -17 107 -127 83 -112 -5 3 -9
-3 -9 -13 0 -14 4 -16 13 -9 16 14 55 -27 89 -91 13 -25 34 -57 48 -72 21 -23
240 -178 252 -178 3 0 35 -24 72 -52 37 -29 99 -76 137 -105 66 -50 70 -55 75
-100 l5 -46 60 -13 c74 -15 125 -36 147 -61 22 -25 55 -100 62 -143 10 -57 59
-143 131 -229 l68 -81 212 0 213 0 17 37 c10 21 28 46 41 56 12 9 32 43 44 75
12 31 31 73 44 92 13 19 29 53 36 75 23 72 52 119 104 171 28 27 68 69 88 92
34 39 78 57 78 32 0 -18 19 -10 25 11 4 12 16 32 28 45 11 13 22 33 24 43 1
11 12 35 23 54 11 19 18 42 14 51 -5 13 -1 15 22 12 16 -2 21 -1 12 1 -10 2
-18 8 -18 13 0 4 9 6 20 3 13 -3 22 0 25 11 17 55 15 53 30 33 8 -11 11 -26 7
-35 -5 -15 -4 -15 11 -3 9 7 17 20 17 28 0 13 3 13 15 3 13 -11 21 -9 47 10
18 13 37 23 44 23 7 0 11 4 8 8 -2 4 5 14 17 23 13 9 19 21 16 30 -7 18 -27
22 -27 6 0 -5 -5 -10 -10 -10 -6 0 -8 11 -4 25 4 15 2 25 -5 25 -6 0 -11 7
-11 15 0 8 6 14 13 12 7 -1 13 10 15 28 2 23 0 27 -7 15 -13 -19 -14 0 -1 20
5 8 10 10 10 4 0 -24 25 -21 27 2 6 80 4 126 -6 138 -9 10 -9 16 -1 21 8 5 8
11 1 19 -6 7 -7 17 -3 21 4 5 2 5 -4 2 -7 -4 -15 0 -18 9 -9 23 -8 26 7 19 6
-4 3 1 -7 9 -11 9 -14 16 -8 16 16 0 16 66 0 76 -7 5 -8 3 -3 -6 6 -10 4 -12
-8 -7 -11 4 -17 1 -17 -8 0 -8 -5 -15 -11 -15 -6 0 -8 -7 -5 -17 4 -9 2 -19
-4 -23 -6 -4 -12 -16 -15 -29 -2 -12 0 -19 4 -17 4 3 3 -10 -3 -29 -6 -19 -14
-35 -18 -35 -4 0 -5 -7 -2 -15 4 -8 -1 -31 -10 -50 -10 -19 -14 -40 -11 -45 3
-6 2 -10 -3 -10 -6 0 -13 -7 -16 -16 -3 -8 -2 -12 4 -9 5 3 8 -3 7 -14 0 -11
-4 -18 -8 -15 -4 2 -9 -5 -12 -17 -4 -15 -2 -17 6 -10 9 7 11 -3 8 -37 -3 -36
-6 -42 -12 -27 -4 11 -8 14 -8 8 -1 -7 -7 -13 -15 -13 -12 0 -32 -72 -29 -108
0 -6 -4 -12 -11 -12 -6 0 -4 -5 4 -11 13 -9 13 -10 0 -6 -8 2 -14 10 -13 16 2
6 -4 11 -13 11 -10 0 -13 6 -10 18 12 37 28 118 28 145 0 15 4 27 8 27 4 0 10
15 13 33 3 17 7 39 9 47 19 67 57 226 64 270 3 14 8 34 13 45 73 164 92 519
37 690 -14 44 -31 88 -36 97 -6 10 -10 24 -10 31 0 7 -9 19 -19 27 -11 7 -18
17 -15 21 2 4 -5 5 -15 2 -31 -8 -31 -59 -2 -233 11 -69 15 -288 5 -277 -4 3
-9 21 -13 39 -9 41 -23 40 -36 -4 -5 -19 -18 -46 -27 -61 -10 -14 -18 -29 -18
-32 0 -15 -39 -45 -80 -61 -25 -9 -52 -23 -61 -31 -19 -16 -39 -17 -39 -2 0 6
-13 -3 -29 -20 -16 -17 -34 -31 -40 -31 -6 0 -11 -9 -11 -20 0 -13 -7 -20 -20
-20 -11 0 -24 -8 -27 -17 -9 -23 -55 -62 -73 -63 -8 0 -21 -9 -27 -20 -11 -16
-10 -18 2 -14 30 12 14 -6 -17 -19 -29 -12 -31 -16 -32 -62 -1 -46 -3 -50 -23
-47 -15 2 -23 -2 -23 -11 0 -18 -30 -27 -97 -27 -52 0 -103 16 -103 32 0 4
-16 8 -35 8 -34 0 -35 1 -35 37 0 24 -9 48 -26 71 -28 36 -33 76 -14 111 6 12
7 21 1 21 -5 0 -11 -5 -13 -11 -2 -5 -18 -11 -36 -11 -18 -1 -35 -5 -38 -10
-3 -4 -15 -8 -26 -8 -12 0 -36 -5 -53 -11 -18 -7 -45 -9 -61 -5 l-29 8 25 13
c25 14 25 14 3 15 -19 0 -23 6 -23 33 0 17 9 43 20 57 11 14 20 31 20 38 0 6
4 12 8 12 5 0 14 11 20 25 7 14 22 30 34 35 32 13 58 35 58 49 0 6 11 11 24
11 20 0 25 6 31 40 4 22 11 40 16 40 14 0 11 20 -6 37 -27 27 -14 48 27 45
l37 -3 -12 36 c-6 21 -17 39 -24 42 -7 3 -13 9 -13 14 0 10 -45 59 -54 59 -3
0 -6 -9 -6 -20 0 -17 -3 -18 -17 -9 -20 12 -73 -3 -73 -21 0 -6 -9 -6 -25 0
-14 5 -50 12 -81 14 -30 3 -62 10 -70 17 -16 13 -19 45 -4 54 17 10 11 53 -7
60 -10 3 -28 19 -41 35 -21 26 -22 32 -9 50 7 11 16 18 18 15 3 -2 13 9 23 25
17 29 17 30 -3 30 -18 0 -21 6 -21 40 0 37 2 40 26 40 26 0 27 1 21 54 -3 30
-12 65 -21 78 -13 20 -14 27 -2 44 7 10 16 34 19 52 6 30 5 32 -21 32 -27 0
-70 -20 -44 -20 6 0 12 -10 12 -22 0 -13 4 -30 9 -37 6 -9 6 -22 0 -33 -12
-22 -29 -24 -29 -3 0 12 -13 15 -55 15 -30 0 -55 -4 -55 -10 0 -5 -9 -19 -20
-30 -17 -17 -24 -19 -43 -9 -12 7 -22 11 -22 9 0 -2 -10 0 -22 4 -13 4 -23 14
-23 22 0 10 -14 14 -58 14 -53 0 -60 3 -80 30 -12 16 -22 41 -22 55 0 14 -4
25 -9 25 -4 0 -20 12 -34 26 -14 14 -31 23 -37 19 -15 -9 -20 16 -11 55 5 19
9 28 10 19 1 -13 8 -15 39 -10 34 6 152 -14 177 -30 15 -10 184 -4 235 8 25 6
80 14 123 18 52 5 85 12 96 23 9 10 33 26 54 37 20 11 37 25 37 32 0 7 3 13 8
13 4 0 13 13 20 30 10 21 21 30 37 30 13 0 47 13 76 28 95 49 129 56 180 38
24 -8 38 -15 32 -16 -7 0 -13 -4 -13 -10 0 -17 36 -11 55 10 10 11 24 20 32
20 7 0 13 7 13 15 0 8 7 15 15 15 10 0 15 11 16 33 1 44 6 78 14 105 6 19 4
22 -21 22 l-29 0 25 20 c23 17 26 17 42 3 25 -23 23 1 -5 52 -15 26 -29 40
-42 40 -15 0 -19 6 -17 23 2 13 -4 35 -13 48 -9 14 -14 32 -11 40 4 10 -3 14
-22 14 -23 0 -30 -6 -41 -36 -12 -32 -11 -37 8 -53 27 -24 27 -47 -1 -54 -21
-6 -21 -7 -3 -27 10 -11 26 -20 37 -20 13 0 18 -7 18 -26 0 -22 -3 -24 -22
-19 -18 5 -20 4 -8 -4 10 -7 11 -11 3 -11 -7 0 -13 -7 -13 -14 0 -37 -114 -91
-176 -84 -19 2 -34 0 -34 -4 0 -10 -85 -11 -131 -1 -33 7 -33 7 -9 15 18 5 11
7 -22 4 -26 -2 -67 0 -90 4 -25 5 -44 5 -46 -1 -2 -5 -16 -9 -32 -9 -16 0 -49
-9 -75 -20 -26 -11 -69 -20 -98 -20 -46 0 -49 1 -31 14 30 22 9 31 -44 17 -69
-19 -182 -25 -182 -10 0 6 6 9 14 6 8 -3 27 -2 43 3 25 7 23 8 -20 9 -26 1
-62 -6 -79 -15 -19 -10 -33 -12 -37 -6 -10 15 -90 20 -84 5 3 -7 -2 -13 -10
-13 -9 0 -19 -9 -22 -20 -8 -25 -33 -26 -42 -2 -10 26 -64 74 -78 68 -8 -3
-11 2 -8 14 3 10 15 20 26 23 12 2 30 8 40 12 14 6 17 2 17 -19 0 -24 4 -26
40 -26 22 0 40 3 40 8 0 13 54 33 108 39 51 6 52 5 52 -21 0 -28 14 -35 24
-11 3 8 1 15 -4 15 -5 0 2 11 16 25 28 28 44 32 44 10 0 -11 11 -15 40 -15 37
0 40 -2 40 -29 0 -28 1 -28 48 -23 26 2 55 9 64 13 9 5 26 9 38 9 12 0 37 12
56 28 31 24 34 32 34 79 l0 51 40 7 c23 4 40 12 40 20 0 7 8 16 17 19 15 6 15
8 3 16 -20 13 -33 12 -25 0 13 -20 -17 -9 -54 20 -37 30 -38 30 -125 24 -70
-6 -90 -4 -97 7 -8 12 -10 12 -19 -1 -8 -12 -10 -11 -10 8 0 15 -10 29 -32 40
-17 9 -38 24 -47 32 -9 8 -21 15 -26 16 -5 0 -26 3 -45 8 -38 8 -125 -17 -187
-54 -43 -25 -45 -25 -82 6 -35 29 -38 49 -15 96 17 35 83 88 110 88 9 0 24 10
33 21 16 20 18 20 34 4 16 -15 17 -15 17 4 0 12 4 21 9 21 12 0 21 -25 21 -56
0 -29 14 -59 41 -88 11 -11 19 -23 19 -27 0 -4 12 -9 26 -12 30 -5 46 20 21
35 -10 5 -17 16 -17 24 0 8 -12 28 -27 45 -50 56 -63 115 -37 168 9 17 13 39
10 47 -3 8 -2 12 4 9 6 -4 10 11 10 35 0 33 3 41 15 36 9 -3 15 0 15 9 0 8 4
15 9 15 19 0 19 30 0 54 -25 32 -18 70 12 61 14 -5 19 -2 19 11 0 12 3 14 13
6 8 -7 16 -6 25 4 13 15 13 15 -35 30 -7 2 -13 -3 -13 -11 0 -8 -5 -15 -11
-15 -6 0 -8 6 -5 13 3 6 9 20 12 30 4 9 16 17 27 17 11 0 30 8 41 19 30 26 61
34 77 18 8 -7 24 -13 37 -14 24 -2 48 -25 84 -83 12 -19 34 -50 50 -68 15 -18
28 -37 28 -43 0 -6 6 -17 13 -24 45 -51 59 -72 78 -117 6 -16 16 -29 22 -30
56 -7 113 -19 138 -29 54 -21 81 -137 45 -191 -19 -30 -81 -62 -97 -52 -8 4
-7 9 2 15 25 16 -12 29 -85 29 -59 0 -74 -4 -103 -26 -50 -38 -43 -51 22 -48
30 2 60 6 66 9 5 4 29 9 52 11 23 2 35 0 27 -4 -38 -18 -102 -64 -107 -77 -9
-25 6 -63 27 -70 20 -6 50 14 50 34 0 5 8 12 18 15 9 4 37 24 61 46 25 22 48
40 53 40 4 0 10 0 13 0 14 1 118 118 135 151 11 21 38 50 60 64 43 27 50 41
23 48 -11 3 -7 5 10 6 17 1 27 7 27 16 0 27 2 30 36 46 19 8 31 18 27 22 -3 4
10 7 29 7 54 0 251 54 315 86 72 37 140 105 171 172 21 46 44 140 67 274 7 46
43 84 86 93 38 9 47 1 64 -61 l13 -49 1 39 c2 73 15 26 16 -57 3 -160 4 -179
17 -171 8 5 10 -30 5 -142 -4 -88 -3 -140 3 -128 4 12 10 44 12 72 2 28 7 54
11 58 10 10 9 -4 -8 -126 -8 -58 -14 -123 -14 -145 1 -39 1 -39 8 -9 10 40 20
55 34 53 26 -3 35 2 40 21 3 11 1 23 -4 26 -17 10 2 24 33 24 34 0 70 34 94
87 18 41 18 68 0 136 -15 57 -7 108 28 187 14 33 17 34 20 11 0 -5 4 -13 8
-17 4 -4 3 -13 -3 -20 -7 -9 -7 -50 1 -141 15 -165 22 -205 39 -211 11 -4 12
3 6 34 -4 22 -7 76 -8 122 -1 45 -5 82 -9 82 -5 0 -7 19 -7 43 l2 42 7 -40 c8
-45 10 -41 16 31 2 29 8 64 14 79 5 14 13 59 16 98 7 86 14 100 14 29 0 -39 4
-52 15 -52 12 0 15 20 14 113 0 61 3 123 6 137 14 57 16 118 4 126 -8 5 -10 3
-4 -6 5 -8 4 -11 -2 -7 -6 4 -16 20 -21 37 -9 25 -8 30 4 30 8 0 12 5 9 10 -4
6 -9 8 -13 6 -4 -2 -7 12 -6 32 0 23 -7 44 -18 55 -10 10 -16 22 -13 26 2 5
-2 14 -10 21 -21 17 -19 1 5 -56 12 -26 18 -54 16 -61 -3 -7 3 -35 14 -62 14
-37 17 -60 11 -97 l-7 -49 -6 60 c-5 52 -45 182 -53 173 -2 -2 1 -25 5 -53 4
-27 4 -57 -1 -65 -6 -11 -9 -5 -10 20 -3 100 -7 137 -17 162 -8 20 -8 36 -1
55 6 15 7 24 3 20 -4 -3 -13 1 -19 10 -10 14 -10 19 0 28 16 12 8 68 -7 59 -6
-4 -5 4 2 16 10 18 9 24 -1 31 -11 7 -11 11 -1 17 9 6 4 16 -19 38 -31 29 -83
128 -95 181 -7 31 -54 135 -64 143 -4 3 -10 18 -14 34 -6 24 -4 27 9 22 11 -4
14 -2 8 7 -4 6 -6 21 -5 32 3 19 2 19 -12 1 -14 -17 -16 -17 -35 15 -11 19
-25 39 -30 46 -17 19 -13 25 9 13 15 -8 20 -8 21 2 0 7 2 28 4 47 2 22 0 29
-6 20 -5 -8 -9 -24 -9 -37 0 -13 -4 -20 -10 -17 -5 3 -7 20 -4 38 4 29 3 28
-16 -12 -11 -25 -18 -51 -15 -58 2 -8 1 -12 -4 -9 -14 9 -5 94 14 124 16 27
16 27 -3 5 l-19 -21 -15 34 c-8 18 -12 31 -8 29 4 -3 14 3 21 12 12 15 12 16
-3 10 -20 -7 -27 1 -30 37 -3 33 -6 33 -20 -1 l-11 -28 -6 29 c-4 18 -13 30
-25 32 -10 1 -28 11 -40 21 -11 11 -40 32 -64 47 -23 16 -41 30 -39 32 7 8 47
-10 47 -20 0 -16 67 -48 75 -36 3 5 -5 18 -17 30 -18 16 -20 23 -9 29 9 6 4
10 -16 14 -16 3 -31 0 -35 -6 -5 -8 -8 -6 -8 5 0 10 9 26 21 37 13 12 17 21
10 26 -6 3 -11 2 -11 -3 0 -5 -9 -12 -19 -15 -13 -3 -18 0 -17 11 2 9 7 17 13
19 6 2 8 15 5 30 -3 18 -1 24 7 19 6 -4 25 -12 42 -16 25 -8 29 -7 19 4 -8 11
-8 15 2 19 9 4 9 6 1 6 -6 1 -14 -3 -17 -8 -8 -12 -57 11 -52 24 2 6 -1 20 -5
33 -5 14 -5 21 0 18 13 -8 38 3 45 20 3 8 -1 14 -10 14 -9 0 -12 -5 -8 -12 5
-10 4 -10 -6 -1 -11 10 -11 15 1 30 13 16 12 17 -4 4 -24 -19 -30 -10 -17 25
14 34 4 128 -14 147 -7 7 -11 18 -8 26 3 8 0 11 -7 7 -7 -4 -9 -2 -5 7 5 15
-54 92 -64 82 -3 -2 7 -17 22 -31 14 -15 24 -29 21 -32 -7 -7 -52 44 -60 68
-4 12 -9 19 -12 16 -3 -3 -14 -1 -24 5 -15 8 -19 6 -19 -6 0 -9 5 -13 10 -10
6 4 10 -9 10 -32 0 -22 4 -43 9 -48 11 -13 31 -96 31 -129 0 -14 -5 -26 -11
-26 -5 0 -7 5 -4 11 10 14 -4 61 -15 54 -5 -3 -7 -27 -4 -53 5 -45 4 -46 -9
-23 -8 14 -13 31 -10 38 6 16 -29 133 -39 133 -11 0 -10 -11 8 -63 9 -26 13
-52 11 -59 -3 -8 -6 -6 -6 5 -1 9 -5 17 -10 17 -5 0 -12 13 -16 30 -4 16 -20
39 -36 51 -25 18 -32 19 -46 8 -14 -12 -15 -11 -9 9 9 26 -8 30 -23 5 -9 -16
-11 -16 -12 5 -1 12 -3 27 -4 32 -1 6 -3 16 -4 24 -1 15 -71 61 -71 47 0 -5 6
-11 14 -14 8 -3 20 -16 27 -28 10 -19 4 -17 -32 11 -24 19 -56 46 -71 61 -28
29 -38 28 -38 -5 0 -17 2 -18 10 -6 8 13 10 12 10 -3 0 -21 -20 -18 -31 4 -3
8 -16 34 -28 59 -12 25 -19 36 -16 24 4 -14 0 -21 -9 -21 -8 0 -12 6 -8 15 4
11 1 14 -11 9 -12 -5 -17 -1 -17 12 0 10 -14 33 -32 50 l-32 31 -26 -27 c-19
-22 -22 -30 -12 -36 7 -5 18 -6 25 -3 7 2 3 5 -8 5 -15 1 -17 3 -7 10 17 10
62 -9 62 -26 0 -7 5 -13 10 -13 6 0 10 -4 10 -10 0 -5 -8 -10 -18 -10 -10 0
-24 -6 -31 -12 -8 -8 -11 -8 -8 -2 4 7 -1 18 -10 25 -12 10 -14 10 -9 2 10
-17 -9 -16 -44 2 -33 17 -41 4 -14 -23 22 -22 1 -29 -33 -11 -22 12 -23 14 -6
20 16 7 16 8 -3 8 -29 1 -48 -21 -32 -37 8 -8 9 -12 1 -12 -6 0 -14 7 -17 16
-4 10 -13 13 -26 9 -11 -4 -20 -2 -20 4 0 18 -58 41 -107 42 -37 1 -42 3 -23
8 l25 7 -25 7 c-14 4 -41 7 -60 8 -19 1 -27 3 -17 6 35 9 16 23 -25 18 -32 -4
-38 -3 -23 4 16 8 10 10 -27 10 -27 1 -48 6 -48 12 0 6 -17 10 -42 8 -53 -3
-119 27 -111 50 4 14 3 14 -6 1 -6 -8 -11 -10 -11 -4 0 6 -7 11 -15 11 -12 0
-11 -5 5 -19 22 -21 19 -38 -8 -38 -14 0 -15 -2 -2 -10 12 -7 12 -12 -4 -28
-13 -15 -14 -21 -4 -25 7 -3 -2 -6 -19 -6 -18 -1 -33 4 -33 9 0 6 8 10 17 10
9 0 14 2 11 5 -9 9 -59 -6 -53 -15 3 -5 -8 -5 -25 0 -23 6 -30 6 -27 -3 2 -6
18 -15 35 -19 29 -8 45 -28 23 -28 -5 0 -17 -3 -27 -7 -12 -4 -15 -3 -10 5 5
8 -2 12 -23 12 -32 0 -54 -19 -24 -21 10 -1 21 -1 26 0 4 0 7 -3 7 -8 0 -5 12
-14 28 -20 26 -10 26 -10 -8 -6 -88 12 -200 14 -200 4 0 -6 7 -9 15 -5 8 3 15
2 15 -2 0 -4 18 -15 40 -25 22 -9 40 -19 40 -21 0 -10 -66 1 -76 12 -10 13
-102 43 -134 44 -8 1 -21 5 -27 11 -9 6 -18 5 -28 -3 -12 -10 -15 -10 -15 0 0
7 -6 10 -13 7 -8 -3 -20 -1 -28 3 -8 5 -19 4 -26 -2 -9 -7 -17 -7 -27 1 -9 8
-16 8 -20 2 -8 -12 30 -25 46 -15 10 5 10 4 1 -6 -11 -12 -184 -39 -248 -40
-23 0 -27 3 -15 10 12 8 11 10 -6 10 -12 0 -37 7 -55 15 l-34 14 49 -6 c39 -5
47 -4 41 7 -6 9 -4 12 6 8 8 -3 22 -2 32 1 16 6 13 10 -17 26 -36 20 -51 43
-18 30 67 -28 182 -34 206 -10 8 8 26 15 40 15 14 0 28 4 31 10 3 5 -8 9 -27
8 -62 -2 -119 13 -116 30 2 8 10 17 18 19 13 4 13 3 0 -6 -25 -17 -6 -21 60
-10 62 10 90 19 58 19 -9 0 -22 8 -29 17 -13 15 -12 16 6 8 11 -4 30 -8 43 -8
12 1 22 -3 22 -8 0 -5 12 -9 28 -9 l27 0 -33 20 c-18 11 -38 17 -44 14 -6 -4
-8 -3 -5 3 4 6 0 13 -8 17 -8 3 -15 10 -15 16 0 7 5 8 13 3 14 -9 67 -11 67
-2 0 7 -80 39 -98 39 -7 0 -12 5 -12 10 0 13 27 13 35 0 4 -6 15 -8 25 -5 11
3 28 1 39 -4 14 -8 33 -6 70 5 28 8 55 13 59 10 4 -3 14 -1 22 4 10 6 2 11
-25 16 -26 5 -40 3 -43 -5 -2 -6 -8 -11 -13 -11 -6 0 -8 3 -6 8 3 4 -20 8 -51
8 -41 1 -51 -1 -34 -7 12 -5 22 -10 22 -12 0 -10 -46 0 -53 11 -4 6 -17 12
-27 12 -11 0 -20 4 -20 8 0 5 25 8 56 6 30 -1 54 0 51 2 -9 10 -67 22 -67 15
0 -4 -24 -7 -54 -7 -30 1 -52 -2 -49 -6 2 -5 -3 -8 -12 -8 -9 0 -13 -5 -9 -11
4 -8 0 -8 -15 0 -11 7 -21 16 -21 22 0 6 -5 7 -11 3 -8 -4 -7 -9 2 -15 11 -7
9 -9 -6 -9 -17 0 -17 -2 -5 -10 12 -8 10 -10 -8 -10 -26 0 -20 -20 6 -21 9 0
35 -9 57 -20 34 -16 36 -18 11 -13 -16 3 -48 14 -70 25 -46 22 -63 24 -68 7
-3 -7 -14 -9 -31 -4 -30 7 -37 26 -9 26 15 0 15 2 2 11 -12 8 -10 10 10 6 14
-3 36 -9 50 -13 22 -7 24 -6 11 9 -7 9 -10 17 -5 18 5 1 -2 4 -16 8 -17 5 -25
14 -24 29 1 28 -26 29 -33 2 -6 -21 -18 -26 -28 -11 -3 5 -1 12 5 16 6 4 8 11
5 16 -4 5 2 9 12 9 17 1 17 1 0 11 -21 12 -37 4 -38 -19 0 -10 -6 -5 -14 13
-8 17 -14 23 -15 13z m-195 -108 c3 -5 1 -10 -4 -10 -6 0 -11 5 -11 10 0 6 2
10 4 10 3 0 8 -4 11 -10z m419 -5 c3 -8 1 -15 -4 -15 -6 0 -10 7 -10 15 0 8 2
15 4 15 2 0 6 -7 10 -15z m-384 -5 c0 -5 -4 -10 -10 -10 -5 0 -10 5 -10 10 0
6 5 10 10 10 6 0 10 -4 10 -10z m224 -50 c-7 -7 -21 -6 -45 5 -28 13 -29 15
-7 10 15 -3 30 0 34 6 4 8 9 8 17 0 8 -8 8 -14 1 -21z m126 -5 c34 -14 34 -14
5 -10 -16 2 -38 4 -47 4 -10 1 -18 6 -18 11 0 13 17 12 60 -5z m-57 -45 c17
-20 16 -20 -10 -14 -47 10 -54 14 -48 24 10 16 39 11 58 -10z m171 -21 c5 -5
7 -12 3 -16 -4 -4 -13 -1 -19 5 -7 7 -25 12 -41 12 -15 0 -26 4 -22 10 6 10
64 2 79 -11z m-179 -19 c8 -13 -12 -40 -29 -40 -6 0 -2 7 8 15 19 15 19 15 -2
15 -12 0 -22 5 -22 10 0 13 37 13 45 0z m45 -20 c0 -5 -4 -10 -10 -10 -5 0
-10 5 -10 10 0 6 5 10 10 10 6 0 10 -4 10 -10z m860 2 c0 -5 -7 -9 -15 -9 -8
0 -12 4 -9 9 3 4 9 8 15 8 5 0 9 -4 9 -8z m140 -26 c0 -2 -7 -7 -16 -10 -8 -3
-12 -2 -9 4 6 10 25 14 25 6z m-1013 -12 c-3 -3 -12 -4 -19 -1 -8 3 -5 6 6 6
11 1 17 -2 13 -5z m-407 -14 c0 -5 -4 -10 -10 -10 -5 0 -10 5 -10 10 0 6 5 10
10 10 6 0 10 -4 10 -10z m477 4 c-3 -3 -12 -4 -19 -1 -8 3 -5 6 6 6 11 1 17
-2 13 -5z m70 0 c-3 -3 -12 -4 -19 -1 -8 3 -5 6 6 6 11 1 17 -2 13 -5z m-222
-24 c3 -5 2 -10 -4 -10 -5 0 -13 5 -16 10 -3 6 -2 10 4 10 5 0 13 -4 16 -10z
m-308 -6 c-3 -3 -12 -4 -19 -1 -8 3 -5 6 6 6 11 1 17 -2 13 -5z m258 -4 c-3
-5 -16 -10 -28 -9 -21 0 -21 1 -2 9 28 12 37 12 30 0z m1343 -17 c-10 -2 -26
-2 -35 0 -10 3 -2 5 17 5 19 0 27 -2 18 -5z m-458 -13 c20 -6 21 -8 5 -8 -11
0 -29 3 -40 8 -25 11 1 11 35 0z m790 0 c0 -5 -8 -6 -17 -3 -16 6 -16 5 -4
-10 12 -15 12 -17 -3 -11 -23 9 -20 34 4 34 11 0 20 -4 20 -10z m-1280 -17 c0
-17 -8 -16 -26 1 -12 13 -12 15 6 13 11 -1 20 -7 20 -14z m983 0 c-7 -2 -21
-2 -30 0 -10 3 -4 5 12 5 17 0 24 -2 18 -5z m-513 -13 c0 -5 -4 -10 -10 -10
-5 0 -10 5 -10 10 0 6 5 10 10 10 6 0 10 -4 10 -10z m713 3 c-7 -2 -19 -2 -25
0 -7 3 -2 5 12 5 14 0 19 -2 13 -5z m-1538 -23 c19 -8 19 -9 -2 -9 -12 -1 -25
4 -28 9 -7 12 2 12 30 0z m1578 3 c-7 -2 -19 -2 -25 0 -7 3 -2 5 12 5 14 0 19
-2 13 -5z m-2126 -9 c-3 -3 -12 -4 -19 -1 -8 3 -5 6 6 6 11 1 17 -2 13 -5z
m333 -14 c13 -9 13 -10 0 -10 -8 0 -22 5 -30 10 -13 9 -13 10 0 10 8 0 22 -5
30 -10z m895 -8 c-3 -3 -11 0 -18 7 -9 10 -8 11 6 5 10 -3 15 -9 12 -12z m42
12 c-3 -3 -12 -4 -19 -1 -8 3 -5 6 6 6 11 1 17 -2 13 -5z m854 -21 c13 -16 12
-17 -3 -4 -10 7 -18 15 -18 17 0 8 8 3 21 -13z m-464 1 c-3 -3 -12 -4 -19 -1
-8 3 -5 6 6 6 11 1 17 -2 13 -5z m378 -3 c3 -6 -3 -10 -12 -10 -77 -1 -94 -4
-89 -16 3 -9 0 -12 -10 -8 -28 10 -14 32 24 36 71 7 81 7 87 -2z m-2079 -28
c-1 -1 -12 0 -25 4 -15 4 -19 8 -10 13 10 7 42 -10 35 -17z m70 -10 c-7 -7
-46 16 -46 28 0 5 11 2 25 -7 14 -9 24 -19 21 -21z m1677 30 c-7 -2 -19 -2
-25 0 -7 3 -2 5 12 5 14 0 19 -2 13 -5z m197 -13 c0 -8 -121 -33 -128 -26 -11
11 9 20 56 26 63 8 72 8 72 0z m472 -12 c-9 -9 -42 -1 -42 12 0 4 12 5 26 2
15 -3 22 -8 16 -14z m319 0 c1 -7 3 -28 5 -47 5 -39 -2 -39 -9 -1 -3 14 -8 33
-12 43 -4 10 -3 17 4 17 6 0 12 -6 12 -12z m-2691 -18 c8 -5 12 -11 9 -14 -3
-3 -14 1 -25 9 -21 16 -8 20 16 5z m2038 -1 c-20 -11 -126 -25 -117 -16 7 9
77 25 109 26 22 0 23 -1 8 -10z m-174 -18 c6 -9 -26 -21 -58 -21 -35 0 0 21
46 29 4 0 9 -3 12 -8z m153 -7 c-3 -3 -12 -4 -19 -1 -8 3 -5 6 6 6 11 1 17 -2
13 -5z m-74 -11 c-7 -2 -21 -2 -30 0 -10 3 -4 5 12 5 17 0 24 -2 18 -5z m-59
-10 c-5 -5 -12 -12 -15 -16 -3 -5 -9 -2 -12 7 -5 12 0 16 15 16 12 0 17 -3 12
-7z m190 -1 c-6 -4 -14 -14 -17 -22 -5 -13 -6 -13 -6 0 -1 12 -12 14 -53 12
-39 -2 -49 0 -38 7 8 6 40 11 70 11 30 0 50 -4 44 -8z m406 -21 c0 -6 -4 -13
-10 -16 -5 -3 -10 1 -10 9 0 9 5 16 10 16 6 0 10 -4 10 -9z m-1373 -17 c-3 -3
-12 -4 -19 -1 -8 3 -5 6 6 6 11 1 17 -2 13 -5z m661 -1 c-10 -2 -26 -2 -35 0
-10 3 -2 5 17 5 19 0 27 -2 18 -5z m972 -32 c0 -11 -5 -23 -12 -27 -6 -4 -8
-3 -4 4 3 6 2 13 -4 17 -15 9 -12 25 5 25 8 0 15 -9 15 -19z m-815 -68 c-11
-3 -27 -10 -35 -17 -13 -10 -13 -9 -1 7 7 9 23 16 35 16 20 -1 20 -2 1 -6z
m875 -35 c0 -4 -4 -8 -10 -8 -5 0 -10 4 -10 9 0 5 -3 18 -6 28 -5 16 -4 16 10
-1 9 -11 16 -23 16 -28z m-113 -20 c-3 -8 -6 -5 -6 6 -1 11 2 17 5 13 3 -3 4
-12 1 -19z m-2770 -4 c-3 -3 -12 -4 -19 -1 -8 3 -5 6 6 6 11 1 17 -2 13 -5z
m2073 -4 c0 -5 -10 -10 -22 -11 -13 0 -43 -2 -68 -4 -52 -5 -43 2 21 14 62 12
69 12 69 1z m685 -9 c3 -5 1 -12 -5 -16 -5 -3 -10 1 -10 9 0 18 6 21 15 7z
m-650 -11 c-3 -5 -11 -10 -16 -10 -6 0 -7 5 -4 10 3 6 11 10 16 10 6 0 7 -4 4
-10z m760 -39 c3 -5 1 -12 -5 -16 -5 -3 -10 1 -10 9 0 18 6 21 15 7z m-3035
-30 c0 -5 -11 -16 -25 -25 -14 -9 -25 -14 -25 -10 0 4 -7 1 -16 -6 -12 -11
-15 -11 -12 1 6 26 78 64 78 40z m-127 -103 c-4 -7 -8 -17 -8 -23 0 -5 -9 -11
-20 -13 -18 -4 -18 -2 4 22 26 28 37 34 24 14z m3129 -9 c16 -12 27 -24 24
-26 -3 -3 -19 6 -36 21 -38 31 -30 35 12 5z m-3098 -20 c-12 -13 -20 -16 -22
-9 -3 7 2 16 9 21 25 16 32 9 13 -12z m3097 -68 c-8 -5 -20 -7 -28 -4 -21 8
-15 13 15 13 20 0 23 -3 13 -9z m120 -37 l24 -27 -27 18 c-16 9 -28 21 -28 26
0 14 5 11 31 -17z m-181 -29 c0 -8 -4 -15 -10 -15 -5 0 -7 7 -4 15 4 8 8 15
10 15 2 0 4 -7 4 -15z m-760 -27 c22 -7 40 -18 40 -25 0 -8 7 -8 30 0 25 10
33 9 40 -3 8 -13 10 -12 10 3 0 20 18 23 26 3 6 -17 122 -19 142 -3 9 7 16 7
20 0 4 -5 35 -11 70 -12 34 -1 78 -9 97 -17 19 -7 43 -14 53 -14 20 0 25 -38
7 -53 -6 -5 0 -7 12 -4 12 3 27 -1 33 -8 6 -8 19 -11 28 -8 12 3 14 2 4 -4 -7
-5 -11 -16 -8 -24 13 -42 16 -70 7 -64 -7 3 -8 0 -5 -9 3 -9 2 -16 -3 -16 -8
0 -33 -76 -33 -102 0 -6 20 30 45 81 25 50 51 91 58 90 9 0 9 -2 -1 -6 -6 -2
-10 -9 -7 -14 3 -5 1 -18 -6 -30 -6 -12 -7 -19 -1 -15 17 10 23 -26 7 -38 -16
-12 -11 -51 5 -41 5 3 9 -3 10 -12 5 -77 8 -102 16 -114 5 -8 9 -26 10 -41 1
-14 11 -40 23 -56 26 -37 26 -45 2 -37 -18 5 -17 1 7 -49 15 -31 33 -56 40
-56 7 0 12 -6 11 -12 -1 -7 2 -21 6 -32 5 -11 4 -26 -3 -37 -20 -31 4 -30 37
3 36 36 51 32 25 -7 -13 -20 -14 -29 -5 -38 10 -9 16 -7 31 11 10 12 20 22 23
22 11 0 28 -61 22 -80 -4 -13 0 -31 11 -48 10 -15 17 -32 16 -39 -3 -14 32
-36 42 -26 3 3 6 -1 6 -9 0 -9 5 -18 11 -20 6 -2 11 -40 12 -96 l2 -92 50 0
c47 0 51 -2 65 -32 8 -18 17 -67 21 -108 5 -65 6 -69 8 -25 2 37 5 45 11 30 6
-17 9 -13 14 20 12 69 14 71 15 25 0 -25 -6 -58 -14 -74 -11 -20 -12 -33 -5
-40 5 -5 10 -15 10 -20 0 -6 -5 -4 -10 4 -8 13 -10 12 -10 -4 0 -12 -5 -16
-15 -12 -8 3 -15 2 -15 -3 0 -5 -9 -11 -20 -14 -11 -3 -20 0 -20 6 -1 80 -11
201 -19 215 -9 16 -27 20 -123 25 -62 3 -144 13 -183 22 -170 39 -561 23 -780
-31 -20 -5 -20 -5 -1 10 11 9 30 16 42 16 13 0 29 9 37 21 9 13 17 16 22 10 3
-6 11 -11 16 -11 6 0 7 5 4 10 -4 7 8 8 34 4 28 -4 41 -3 41 5 0 6 7 11 15 11
8 0 15 5 15 10 0 6 -4 10 -9 10 -6 0 -13 -4 -16 -10 -7 -12 -45 -13 -45 -2 0
15 74 45 104 43 16 -2 26 1 22 7 -3 5 1 13 10 16 23 9 36 7 29 -4 -14 -22 13
-8 52 28 37 32 76 53 147 76 15 5 16 9 6 21 -7 8 -9 15 -4 15 4 0 -1 6 -12 14
-17 13 -17 15 -2 21 9 4 25 2 35 -4 15 -9 13 -10 -12 -6 -28 5 -28 5 -6 -5 18
-8 29 -7 45 4 19 12 25 12 41 0 22 -16 35 -18 35 -4 0 6 -6 10 -14 10 -7 0
-19 7 -26 15 -13 16 -35 21 -25 6 3 -5 1 -12 -5 -16 -5 -3 -10 -2 -10 3 0 5
-12 12 -27 15 -44 8 -99 31 -101 42 -3 14 -82 59 -82 47 0 -6 9 -14 20 -17 20
-6 28 -25 10 -25 -12 0 -63 23 -70 31 -3 3 -12 9 -20 13 -8 3 -1 4 17 1 25 -3
31 -1 26 10 -4 11 3 15 23 16 25 2 26 2 6 6 -13 3 -30 -1 -38 -7 -10 -9 -14
-9 -14 -1 0 6 -10 16 -22 20 -18 7 -27 4 -44 -15 -19 -21 -23 -22 -34 -9 -7 8
-22 15 -34 14 -19 -1 -18 -2 4 -8 15 -4 20 -10 13 -14 -6 -4 -18 -4 -26 -1 -9
3 -21 -4 -30 -17 -14 -20 -22 -21 -76 -16 -66 6 -92 -7 -36 -17 52 -10 43 -27
-10 -19 -28 3 -50 1 -59 -6 -10 -8 -16 -9 -21 -1 -7 12 -45 14 -45 1 0 -4 -18
-7 -40 -5 -22 1 -42 -1 -45 -6 -3 -4 -14 -6 -25 -3 -11 3 -28 -1 -37 -8 -9 -8
-30 -18 -46 -24 -17 -5 -33 -16 -35 -24 -3 -10 0 -12 12 -8 9 4 16 2 16 -3 0
-6 -9 -10 -20 -10 -11 0 -20 5 -20 11 0 5 -4 7 -10 4 -5 -3 -10 1 -10 11 0 12
-3 14 -13 5 -10 -8 -17 -7 -25 1 -20 20 -39 2 -34 -32 3 -22 1 -31 -6 -26 -6
4 -16 -3 -22 -14 -6 -11 -8 -20 -5 -20 3 0 -12 -18 -34 -40 -27 -27 -43 -55
-52 -91 -13 -49 -38 -76 -47 -51 -5 17 -110 64 -149 67 -20 2 -41 14 -56 31
-13 15 -32 28 -43 29 -29 2 -44 14 -44 34 0 11 -9 21 -22 24 -13 3 -38 10 -57
16 -31 9 -33 9 -28 -10 4 -15 2 -19 -10 -15 -8 3 -20 6 -26 6 -7 0 -3 7 7 15
18 14 18 15 2 21 -10 4 -21 2 -25 -5 -5 -8 -21 -8 -61 -1 -29 5 -55 10 -57 10
-3 0 -3 7 1 15 4 11 -2 15 -20 15 -14 0 -23 -4 -20 -9 6 -8 -124 -22 -134 -14
-2 2 2 8 9 12 9 6 10 11 3 15 -6 4 -15 -2 -21 -11 -9 -15 -12 -16 -20 -4 -5 7
-14 10 -20 7 -6 -4 -16 -4 -22 0 -8 4 -7 9 2 15 27 16 -3 22 -117 21 -121 0
-136 4 -64 16 62 11 61 28 -2 31 -64 2 -78 11 -16 11 49 0 69 14 88 65 10 27
9 32 -14 50 -14 12 -26 26 -26 33 0 7 -6 12 -14 12 -14 0 -56 61 -56 81 0 5
11 27 25 49 14 23 25 54 25 75 0 19 5 35 11 35 7 0 9 9 6 21 -4 14 2 29 16 44
45 45 67 85 67 118 0 50 17 59 94 51 63 -6 66 -6 66 15 0 18 6 21 39 21 22 0
42 -6 45 -12 3 -10 8 -9 18 3 11 12 31 14 113 11 95 -4 122 -13 108 -36 -4 -5
7 -6 28 -2 19 5 39 8 46 9 12 0 32 40 37 73 3 22 73 45 159 51 57 5 57 5 58
-24 l2 -28 4 28 c2 15 9 27 14 27 5 0 9 -12 10 -27 0 -16 3 -21 6 -13 2 8 7
22 9 30 5 13 6 13 14 0 6 -9 10 -10 10 -3 0 6 3 18 6 26 3 9 -2 17 -13 21 -10
3 24 3 75 0 79 -5 92 -3 92 10 0 12 10 16 38 17 20 1 48 5 62 9 41 13 296 11
340 -2z m-2370 -38 c0 -5 -4 -10 -10 -10 -5 0 -10 5 -10 10 0 6 5 10 10 10 6
0 10 -4 10 -10z m1450 -85 c0 -9 -6 -12 -15 -9 -8 4 -15 10 -15 15 0 5 7 9 15
9 8 0 15 -7 15 -15z m-50 1 c0 -2 -7 -6 -15 -10 -8 -3 -15 -1 -15 4 0 6 7 10
15 10 8 0 15 -2 15 -4z m-1427 -91 c-3 -9 -8 -14 -10 -11 -3 3 -2 9 2 15 9 16
15 13 8 -4z m3417 -45 c-14 -11 -29 -20 -35 -20 -5 0 1 9 15 20 14 11 30 20
35 20 6 0 -1 -9 -15 -20z m-7 -35 c-3 -9 -8 -14 -10 -11 -3 3 -2 9 2 15 9 16
15 13 8 -4z m48 -22 c-12 -20 -14 -14 -5 12 4 9 9 14 11 11 3 -2 0 -13 -6 -23z
m49 -71 c0 -21 -7 -47 -16 -58 -15 -19 -16 -19 -8 1 4 11 9 37 12 58 5 48 12
48 12 -1z m-3455 6 c-2 -26 -25 -91 -31 -85 -3 3 10 59 21 95 7 19 11 14 10
-10z m3415 -52 c0 -18 -17 8 -24 34 l-7 25 15 -25 c9 -14 15 -29 16 -34z m65
-126 c3 -5 1 -10 -4 -10 -6 0 -11 5 -11 10 0 6 2 10 4 10 3 0 8 -4 11 -10z
m-2775 -25 c0 -8 -9 -15 -20 -15 -20 0 -26 11 -13 23 12 13 33 7 33 -8z m2415
-85 c3 -5 1 -10 -4 -10 -6 0 -11 5 -11 10 0 6 2 10 4 10 3 0 8 -4 11 -10z
m210 -280 c3 -5 1 -10 -4 -10 -6 0 -11 5 -11 10 0 6 2 10 4 10 3 0 8 -4 11
-10z m-2318 -26 c-3 -3 -12 -4 -19 -1 -8 3 -5 6 6 6 11 1 17 -2 13 -5z m150 0
c-3 -3 -12 -4 -19 -1 -8 3 -5 6 6 6 11 1 17 -2 13 -5z m1528 -54 c-3 -5 -13
-10 -21 -10 -8 0 -12 5 -9 10 3 6 13 10 21 10 8 0 12 -4 9 -10z m-1208 -56
c-3 -3 -12 -4 -19 -1 -8 3 -5 6 6 6 11 1 17 -2 13 -5z m50 0 c-3 -3 -12 -4
-19 -1 -8 3 -5 6 6 6 11 1 17 -2 13 -5z m2026 -121 c-7 -2 -19 -2 -25 0 -7 3
-2 5 12 5 14 0 19 -2 13 -5z m-518 -64 c112 -21 143 -71 152 -249 6 -122 -12
-241 -51 -325 -51 -112 -188 -173 -476 -211 -161 -21 -348 -16 -403 10 -49 24
-127 95 -151 137 l-18 34 26 -30 25 -30 -25 70 c-33 91 -55 136 -75 156 -9 9
-22 46 -28 83 -23 133 21 197 176 254 94 34 208 62 260 62 17 0 34 4 38 9 3 6
23 9 44 9 22 0 44 3 51 7 35 22 359 32 455 14z m-1904 -59 c11 0 19 -4 19 -8
0 -4 -75 -14 -167 -21 -93 -7 -184 -15 -204 -18 -27 -4 -36 -1 -36 10 0 11 6
13 22 7 13 -5 33 -3 52 5 18 8 41 11 52 8 12 -3 21 -1 21 5 0 11 137 22 194
15 16 -2 37 -3 47 -3z m2709 -10 c0 -5 -5 -10 -11 -10 -5 0 -7 5 -4 10 3 6 8
10 11 10 2 0 4 -4 4 -10z m-1847 -15 c-3 -9 -8 -14 -10 -11 -3 3 -2 9 2 15 9
16 15 13 8 -4z m1810 -8 c3 -8 2 -19 -3 -26 -5 -9 -9 -4 -12 13 -5 27 6 36 15
13z m34 -19 c-3 -8 -6 -5 -6 6 -1 11 2 17 5 13 3 -3 4 -12 1 -19z m-1890 -21
c-28 -43 -101 -78 -176 -84 -74 -6 -121 1 -121 18 0 8 4 8 14 0 11 -9 20 -10
36 -1 11 6 48 13 83 16 34 2 70 7 79 10 22 7 24 24 3 24 -8 0 -15 4 -15 10 0
5 7 7 15 3 9 -3 23 1 33 10 16 14 53 27 61 20 2 -1 -3 -13 -12 -26z m1693 -62
c-2 -57 -15 -82 -33 -62 -37 40 -39 90 -6 107 10 6 19 21 20 33 0 21 1 21 11
-3 6 -14 10 -47 8 -75z m-1810 55 c-13 -8 -13 -10 2 -10 9 0 20 -5 23 -10 7
-11 -83 -5 -93 5 -7 6 39 24 63 24 17 1 17 -1 5 -9z m1967 -32 c-3 -7 -5 -2
-5 12 0 14 2 19 5 13 2 -7 2 -19 0 -25z m-2832 -28 c-3 -5 -13 -10 -21 -10 -8
0 -12 5 -9 10 3 6 13 10 21 10 8 0 12 -4 9 -10z m368 3 c-7 -2 -19 -2 -25 0
-7 3 -2 5 12 5 14 0 19 -2 13 -5z m-423 -12 c0 -4 -11 -6 -25 -3 -14 2 -25 6
-25 8 0 2 11 4 25 4 14 0 25 -4 25 -9z m-81 -5 c-2 -2 -21 -6 -42 -10 -27 -5
-37 -4 -32 3 3 6 22 11 42 11 20 0 34 -2 32 -4z m3008 -33 c-3 -10 -5 -4 -5
12 0 17 2 24 5 18 2 -7 2 -21 0 -30z m-3117 17 c-14 -4 -34 -8 -45 -8 -16 0
-15 2 5 8 14 4 34 8 45 8 16 0 15 -2 -5 -8z m-95 -29 c-3 -6 -10 -9 -15 -6 -5
3 -19 1 -30 -5 -13 -7 -20 -7 -20 -1 0 10 61 32 69 25 1 -1 0 -8 -4 -13z m886
2 c13 -16 12 -17 -3 -4 -17 13 -22 21 -14 21 2 0 10 -8 17 -17z m-961 -17 c0
-2 -21 -17 -46 -33 -25 -15 -54 -44 -64 -63 -13 -24 -19 -29 -20 -17 0 30 37
73 82 96 46 22 48 23 48 17z m3207 -18 c-3 -8 -6 -5 -6 6 -1 11 2 17 5 13 3
-3 4 -12 1 -19z m-3625 -66 c-2 -31 3 -86 11 -122 17 -72 15 -93 -3 -33 -15
48 -25 213 -14 213 5 0 8 -26 6 -58z m3398 -52 l-11 -25 6 25 c2 14 6 41 7 60
l1 35 4 -35 c2 -20 -1 -47 -7 -60z m-2565 70 c3 -5 1 -10 -4 -10 -6 0 -11 5
-11 10 0 6 2 10 4 10 3 0 8 -4 11 -10z m2502 -53 c1 -39 1 -40 -8 -12 -8 26
-6 55 3 55 2 0 4 -19 5 -43z m210 21 c-3 -8 -6 -5 -6 6 -1 11 2 17 5 13 3 -3
4 -12 1 -19z m-2100 -130 c-2 -13 -4 -3 -4 22 0 25 2 35 4 23 2 -13 2 -33 0
-45z m2076 31 c-9 -9 -12 -7 -10 9 1 14 5 18 11 12 7 -7 6 -14 -1 -21z m-3226
-1 c-3 -8 -6 -5 -6 6 -1 11 2 17 5 13 3 -3 4 -12 1 -19z m3065 -70 c-7 -7 -12
-8 -12 -2 0 14 12 26 19 19 2 -3 -1 -11 -7 -17z m-1942 -13 c0 -14 -5 -25 -11
-25 -6 0 -9 -9 -6 -20 3 -11 1 -18 -4 -14 -12 7 -11 41 1 49 6 3 10 11 10 16
0 6 -4 7 -10 4 -5 -3 -10 -1 -10 4 0 6 7 11 15 11 9 0 15 -9 15 -25z m539 -40
c0 -5 -6 1 -14 15 -8 14 -14 30 -14 35 0 6 6 -1 14 -15 8 -14 14 -29 14 -35z
m1421 -7 c0 -19 -2 -20 -10 -8 -13 19 -13 30 0 30 6 0 10 -10 10 -22z m-3063
-10 c-3 -8 -6 -5 -6 6 -1 11 2 17 5 13 3 -3 4 -12 1 -19z m39 -95 c12 -28 28
-54 34 -58 5 -3 8 -10 5 -15 -3 -4 2 -14 11 -21 13 -10 17 -10 24 1 7 12 13
10 33 -8 16 -15 26 -19 29 -11 3 8 16 5 46 -10 28 -14 60 -21 102 -21 l60 0 0
38 c0 21 7 47 15 58 13 18 14 16 15 -23 l0 -43 40 0 40 0 0 50 0 50 -43 0
c-46 0 -44 -3 -38 53 2 13 100 7 141 -9 22 -9 45 -24 50 -34 5 -10 21 -20 35
-22 20 -4 26 -1 31 18 4 14 14 24 24 24 14 0 19 -10 22 -42 5 -47 0 -67 -12
-48 -10 17 -50 -23 -50 -50 0 -13 -7 -20 -20 -20 -12 0 -25 -10 -32 -25 -11
-25 -28 -34 -28 -15 0 6 -18 10 -40 10 -36 0 -40 -2 -40 -25 0 -22 4 -25 43
-27 23 -1 76 -1 117 0 117 4 73 -16 -65 -29 -169 -16 -335 -1 -335 30 0 13 -2
13 -9 2 -13 -20 -88 17 -130 65 -36 41 -95 159 -105 209 -3 17 -3 23 0 15 4
-8 17 -38 30 -67z m1035 -36 c-10 -9 -11 -8 -5 6 3 10 9 15 12 12 3 -3 0 -11
-7 -18z m-901 -37 c0 -5 -2 -10 -4 -10 -3 0 -8 5 -11 10 -3 6 -1 10 4 10 6 0
11 -4 11 -10z m841 -54 c-18 -19 -43 -37 -55 -39 -20 -5 -20 -5 -2 6 11 7 33
24 50 39 43 38 46 35 7 -6z m872 -13 c-7 -2 -19 -2 -25 0 -7 3 -2 5 12 5 14 0
19 -2 13 -5z m302 -3 c-11 -5 -36 -9 -55 -9 -28 0 -31 2 -15 9 11 5 36 9 55 9
28 0 31 -2 15 -9z m-95 -9 c0 -5 -21 -6 -47 -4 -71 7 -75 11 -10 12 31 1 57
-3 57 -8z m-1160 -26 c0 -2 -10 -10 -22 -16 -21 -11 -22 -11 -9 4 13 16 31 23
31 12z m-113 -41 c-3 -3 -12 -4 -19 -1 -8 3 -5 6 6 6 11 1 17 -2 13 -5z m-44
-11 c-7 -2 -21 -2 -30 0 -10 3 -4 5 12 5 17 0 24 -2 18 -5z m-190 -80 c-7 -2
-21 -2 -30 0 -10 3 -4 5 12 5 17 0 24 -2 18 -5z m476 -645 c1 13 31 18 31 5
-1 -21 -30 -43 -56 -43 -26 0 -26 1 -9 14 10 7 16 20 12 29 -3 8 -3 18 1 22 4
4 10 -4 13 -17 4 -13 7 -17 8 -10z m709 -59 c2 -5 10 -9 18 -9 18 0 18 -11 -1
-36 -13 -17 -14 -17 -15 -1 0 21 -23 22 -43 2 -8 -8 -34 -25 -58 -38 -40 -22
-50 -24 -112 -16 -56 7 -72 6 -84 -6 -8 -8 -30 -15 -49 -15 -39 0 -114 21
-114 32 0 5 -7 8 -15 8 -8 0 -15 5 -15 11 0 7 10 9 28 4 42 -12 115 -15 126
-6 6 5 47 14 92 19 53 7 101 21 140 41 55 28 94 32 102 10z m97 1 c3 -5 1 -10
-4 -10 -6 0 -11 5 -11 10 0 6 2 10 4 10 3 0 8 -4 11 -10z m-1459 -785 c-11 -8
-25 -15 -30 -15 -6 1 0 7 14 15 32 19 40 18 16 0z m1484 -204 c-6 -12 -16 -19
-22 -15 -5 4 -14 0 -19 -7 -7 -11 -9 -10 -9 4 0 9 5 17 11 17 6 0 17 7 26 15
20 21 28 12 13 -14z m-214 -481 c0 -11 -3 -20 -7 -20 -4 0 -9 9 -12 20 -3 12
0 20 7 20 6 0 12 -9 12 -20z m-1153 -190 c3 -11 1 -18 -4 -14 -5 3 -9 12 -9
20 0 20 7 17 13 -6z m24 -82 c-3 -8 -6 -5 -6 6 -1 11 2 17 5 13 3 -3 4 -12 1
-19z m2470 -4 c-3 -3 -12 -4 -19 -1 -8 3 -5 6 6 6 11 1 17 -2 13 -5z m-877
-249 c0 -8 -4 -15 -10 -15 -5 0 -10 7 -10 15 0 8 5 15 10 15 6 0 10 -7 10 -15z
m747 -47 c-3 -7 -5 -2 -5 12 0 14 2 19 5 13 2 -7 2 -19 0 -25z m21 -62 c-7 -8
-15 -12 -17 -11 -5 6 10 25 20 25 5 0 4 -6 -3 -14z m-1026 -27 c26 -14 76 -11
110 7 34 17 82 15 138 -7 42 -17 49 -25 43 -49 -5 -20 26 -33 104 -45 42 -7
70 -25 39 -25 -12 0 -16 -10 -16 -40 0 -34 -3 -40 -20 -40 -12 0 -32 -7 -45
-16 -13 -9 -29 -13 -34 -9 -6 3 -21 -1 -34 -10 -13 -8 -26 -13 -29 -10 -3 3
-11 -2 -18 -11 -11 -13 -11 -17 0 -24 19 -12 -14 -62 -35 -54 -9 4 -18 -3 -24
-19 -11 -27 -41 -43 -51 -27 -5 7 -19 2 -41 -16 -19 -16 -36 -30 -39 -32 -2
-1 2 -7 10 -12 12 -7 12 -12 2 -22 -9 -9 -12 -9 -12 5 0 21 -28 22 -54 2 -27
-20 -119 -20 -136 0 -7 8 -21 15 -31 15 -15 0 -19 8 -19 40 0 35 -3 40 -23 40
-13 0 -29 6 -36 13 -11 10 -14 10 -18 0 -3 -7 -18 -13 -34 -13 -27 0 -29 2
-29 40 0 22 5 40 10 40 6 0 10 18 10 40 0 33 3 40 20 40 18 0 20 7 20 61 0 51
4 64 23 80 12 10 30 18 40 19 12 0 17 8 17 31 l0 31 88 -7 c48 -4 95 -11 104
-16z m1048 7 c0 -3 -4 -8 -10 -11 -5 -3 -10 -1 -10 4 0 6 5 11 10 11 6 0 10
-2 10 -4z m-1320 -61 c0 -8 -9 -15 -20 -15 -11 0 -20 7 -20 15 0 8 9 15 20 15
11 0 20 -7 20 -15z m-20 -389 c0 -3 -4 -8 -10 -11 -5 -3 -10 -1 -10 4 0 6 5
11 10 11 6 0 10 -2 10 -4z"/>
<path d="M3153 5783 c9 -2 25 -2 35 0 9 3 1 5 -18 5 -19 0 -27 -2 -17 -5z"/>
<path d="M5076 5644 c-4 -9 -4 -19 -1 -22 2 -3 7 3 11 12 4 9 4 19 1 22 -2 3
-7 -3 -11 -12z"/>
<path d="M3040 5349 c0 -5 5 -7 10 -4 6 3 10 8 10 11 0 2 -4 4 -10 4 -5 0 -10
-5 -10 -11z"/>
<path d="M2997 5184 c-9 -10 2 -24 19 -24 8 0 14 7 14 15 0 15 -21 21 -33 9z"/>
<path d="M3040 5170 c0 -5 18 -10 40 -10 22 0 40 5 40 10 0 6 -18 10 -40 10
-22 0 -40 -4 -40 -10z"/>
<path d="M5068 5173 c7 -3 16 -2 19 1 4 3 -2 6 -13 5 -11 0 -14 -3 -6 -6z"/>
<path d="M5078 5093 c7 -3 16 -2 19 1 4 3 -2 6 -13 5 -11 0 -14 -3 -6 -6z"/>
<path d="M4950 5013 c-19 -8 -29 -17 -23 -20 7 -2 23 3 35 11 12 9 32 16 43
15 16 0 13 -4 -12 -16 -18 -9 -34 -21 -36 -28 -3 -6 18 0 46 14 44 20 49 25
32 32 -30 11 -46 10 -85 -8z"/>
<path d="M5068 5023 c6 -2 18 -2 25 0 6 3 1 5 -13 5 -14 0 -19 -2 -12 -5z"/>
<path d="M4811 4929 c-13 -11 -20 -23 -16 -27 4 -4 10 -1 12 6 3 6 11 12 19
12 8 0 14 7 14 15 0 19 0 19 -29 -6z"/>
<path d="M4645 4724 c-11 -2 -58 -12 -105 -21 -98 -19 -194 -52 -249 -88 -39
-24 -69 -56 -40 -41 8 4 4 -1 -8 -10 -23 -17 -33 -41 -11 -28 8 5 9 2 5 -10
-4 -10 -7 -21 -7 -24 0 -4 -5 0 -11 8 -9 12 -10 11 -6 -7 3 -13 1 -23 -4 -23
-5 0 -9 -16 -9 -35 0 -24 6 -37 20 -45 15 -8 19 -17 15 -33 -4 -12 -3 -17 2
-11 4 6 29 11 55 10 27 0 43 -2 38 -4 -6 -2 -10 -8 -10 -13 0 -15 89 -10 122
7 26 14 37 14 77 3 25 -6 53 -18 62 -26 18 -15 139 -18 139 -3 0 6 18 10 40
10 27 0 40 -4 40 -14 0 -21 88 -8 132 21 21 12 41 23 45 23 5 0 25 11 45 25
20 14 51 25 67 25 24 0 31 4 31 20 0 11 -3 20 -7 21 -47 4 -64 16 -43 29 22
13 5 23 -18 11 -12 -6 -45 -12 -74 -12 l-53 -2 40 -7 c45 -8 29 -12 -63 -15
-35 -2 -85 -5 -111 -9 -37 -5 -52 -2 -68 11 -12 10 -30 23 -40 30 -16 10 -12
12 23 12 22 1 78 13 125 27 102 32 164 47 292 70 77 14 97 21 94 34 -2 10 -12
14 -29 12 -15 -1 -69 11 -120 29 -51 17 -104 32 -118 34 -56 8 -177 6 -210 -4
-19 -6 -51 -10 -70 -9 l-35 1 33 4 c18 2 30 9 27 14 -6 9 -15 10 -50 3z m226
-76 c-1 -5 -1 -16 -1 -26 0 -10 -12 -22 -29 -29 l-29 -11 -4 45 c-2 24 -2 46
1 48 6 6 62 -19 62 -27z"/>
<path d="M5321 4682 c-1 -8 -10 -11 -28 -8 -41 8 -45 -2 -17 -39 22 -29 24
-36 12 -54 -7 -12 -16 -21 -20 -21 -5 0 -8 -5 -8 -12 0 -6 -7 -19 -16 -29 -19
-21 -12 -49 11 -49 9 0 14 4 11 9 -3 5 1 12 10 15 12 5 14 1 8 -17 -6 -21 -6
-21 13 -4 21 19 38 23 28 7 -3 -5 0 -10 8 -10 12 0 14 16 12 88 -1 48 -7 98
-13 112 -6 14 -11 19 -11 12z"/>
<path d="M4212 4370 c0 -14 2 -19 5 -12 2 6 2 18 0 25 -3 6 -5 1 -5 -13z"/>
<path d="M4435 4050 c3 -5 11 -10 16 -10 6 0 7 5 4 10 -3 6 -11 10 -16 10 -6
0 -7 -4 -4 -10z"/>
<path d="M4514 4018 c-16 -17 -23 -28 -15 -23 8 4 17 2 22 -6 5 -9 9 -10 9 -2
0 8 10 9 36 2 19 -6 41 -8 47 -6 7 3 -3 8 -20 12 -26 6 -33 13 -33 31 0 32
-10 30 -46 -8z"/>
<path d="M4648 3983 c7 -3 16 -2 19 1 4 3 -2 6 -13 5 -11 0 -14 -3 -6 -6z"/>
<path d="M4080 4630 c-8 -5 -10 -10 -5 -10 6 0 17 5 25 10 8 5 11 10 5 10 -5
0 -17 -5 -25 -10z"/>
<path d="M5797 4615 c-4 -8 -3 -16 1 -19 4 -3 9 4 9 15 2 23 -3 25 -10 4z"/>
<path d="M5790 4570 c0 -5 5 -10 11 -10 5 0 7 5 4 10 -3 6 -8 10 -11 10 -2 0
-4 -4 -4 -10z"/>
<path d="M2756 3943 c-10 -11 -7 -31 7 -36 7 -3 13 3 14 14 2 20 -10 33 -21
22z"/>
<path d="M2804 3893 c-1 -14 4 -23 13 -23 8 0 11 5 7 11 -3 6 -1 15 6 19 8 5
6 9 -7 12 -13 4 -18 -1 -19 -19z"/>
<path d="M2851 3891 c-11 -7 -10 -11 6 -19 15 -9 19 -7 19 9 0 21 -4 23 -25
10z"/>
<path d="M3178 3823 c7 -3 16 -2 19 1 4 3 -2 6 -13 5 -11 0 -14 -3 -6 -6z"/>
<path d="M3875 7180 c3 -5 1 -10 -4 -10 -6 0 -11 -4 -11 -10 0 -5 6 -7 14 -4
8 3 24 1 35 -5 11 -6 22 -7 25 -2 3 5 -5 12 -19 15 -14 4 -25 11 -25 16 0 6
-5 10 -11 10 -5 0 -7 -4 -4 -10z"/>
<path d="M3238 7163 c6 -2 18 -2 25 0 6 3 1 5 -13 5 -14 0 -19 -2 -12 -5z"/>
<path d="M2925 7149 c-14 -5 -4 -8 32 -8 28 -1 59 -4 69 -8 12 -4 15 -2 12 8
-5 16 -80 21 -113 8z"/>
<path d="M3572 7134 c-13 -10 -13 -11 0 -17 32 -12 195 -19 202 -9 11 18 -15
26 -103 32 -54 3 -89 1 -99 -6z"/>
<path d="M4158 7143 c7 -3 16 -2 19 1 4 3 -2 6 -13 5 -11 0 -14 -3 -6 -6z"/>
<path d="M4816 7135 c-9 -26 -7 -32 5 -12 6 10 9 21 6 23 -2 3 -7 -2 -11 -11z"/>
<path d="M3853 7133 c9 -2 23 -2 30 0 6 3 -1 5 -18 5 -16 0 -22 -2 -12 -5z"/>
<path d="M4267 7119 c7 -7 15 -10 18 -7 3 3 -2 9 -12 12 -14 6 -15 5 -6 -5z"/>
<path d="M3858 7113 c6 -2 18 -2 25 0 6 3 1 5 -13 5 -14 0 -19 -2 -12 -5z"/>
<path d="M4520 7106 c0 -2 7 -7 16 -10 8 -3 12 -2 9 4 -6 10 -25 14 -25 6z"/>
<path d="M4567 7093 c-12 -12 -7 -19 14 -20 17 -2 18 1 9 13 -14 16 -14 16
-23 7z"/>
<path d="M2780 7070 c-11 -15 -17 -17 -29 -7 -11 10 -13 9 -9 -3 2 -8 12 -15
21 -15 8 0 26 -10 39 -23 31 -28 59 -31 33 -2 -10 11 -21 17 -25 15 -4 -3 -11
3 -15 12 -3 10 -1 19 4 21 13 4 15 22 3 22 -4 0 -14 -9 -22 -20z"/>
<path d="M3910 7080 c19 -5 41 -4 50 0 10 6 -1 9 -35 9 -48 -1 -49 -1 -15 -9z"/>
<path d="M4242 7078 c-7 -7 -12 -9 -12 -5 0 4 -10 3 -21 -4 -15 -8 -19 -8 -15
0 4 6 2 11 -3 11 -6 0 -11 -5 -11 -11 0 -7 -9 -9 -22 -5 -13 4 -37 9 -55 11
-31 4 -32 3 -22 -21 7 -20 6 -25 -3 -21 -7 2 -12 10 -10 16 1 6 -5 11 -14 11
-11 0 -13 -6 -9 -19 3 -11 1 -22 -5 -26 -18 -11 -2 -22 36 -23 20 -1 45 -9 55
-18 14 -13 32 -14 111 -9 51 4 100 7 108 8 8 0 24 6 35 13 11 8 32 14 47 14
20 0 26 4 22 14 -3 8 -12 17 -21 20 -11 5 -13 2 -9 -10 3 -9 -11 -3 -34 16
-24 19 -48 30 -59 27 -9 -2 -26 2 -36 9 -23 17 -37 18 -53 2z m-112 -24 c0 -2
-7 -4 -15 -4 -8 0 -15 4 -15 10 0 5 7 7 15 4 8 -4 15 -8 15 -10z m165 -38 l40
-39 -45 8 c-25 4 -63 9 -85 11 -21 3 -44 9 -49 14 -6 6 -21 10 -34 10 -13 0
-21 4 -17 10 4 6 16 8 28 4 12 -4 29 -8 37 -9 8 -1 22 -5 30 -8 30 -12 94 -26
98 -22 2 2 -15 15 -37 29 -45 29 -50 36 -23 33 9 -1 35 -19 57 -41z m-201 -5
c3 -4 -8 -8 -23 -7 -16 1 -27 4 -24 9 6 10 41 9 47 -2z"/>
<path d="M4355 7080 c3 -5 13 -10 21 -10 8 0 14 -4 14 -10 0 -5 6 -10 13 -10
6 1 1 10 -12 20 -25 21 -46 27 -36 10z"/>
<path d="M3769 7056 c11 -5 31 -4 48 1 25 9 23 10 -20 9 -35 -1 -42 -3 -28
-10z"/>
<path d="M4436 7062 c-3 -6 7 -18 22 -27 l27 -18 -20 24 c-11 13 -21 25 -21
27 -1 2 -5 -1 -8 -6z"/>
<path d="M4607 7063 c-23 -6 -17 -25 12 -39 27 -14 50 -44 50 -64 0 -11 -2
-10 -10 3 -6 11 -26 25 -45 33 -20 8 -34 21 -34 32 0 14 -2 14 -9 3 -5 -8 -7
-19 -5 -25 2 -6 -10 -12 -28 -13 -18 -2 -34 -7 -36 -12 -2 -7 -10 -6 -21 1
-13 8 -29 8 -57 0 -26 -7 -31 -11 -14 -10 38 1 88 -13 101 -28 6 -8 15 -11 20
-8 5 3 8 0 7 -7 -2 -7 2 -14 7 -14 11 -2 53 -19 88 -36 12 -5 4 6 -18 26 -22
19 -51 38 -65 41 -52 12 -56 14 -40 24 8 5 21 5 29 1 9 -5 31 -11 49 -15 19
-3 47 -15 63 -27 22 -15 27 -17 23 -5 -4 11 -1 16 10 16 18 0 22 15 6 25 -5 3
-10 10 -10 15 0 5 21 -10 46 -33 26 -23 51 -41 56 -39 6 1 17 -5 25 -15 13
-15 13 -14 0 7 -9 14 -20 24 -26 23 -6 -2 -11 7 -11 20 0 12 -7 31 -15 41 -18
23 -19 18 -5 -21 9 -24 8 -26 -3 -11 -8 10 -17 15 -20 11 -4 -3 -7 5 -7 20 0
14 6 28 13 30 9 4 9 6 0 6 -6 1 -15 -4 -18 -9 -4 -6 -18 0 -37 15 -16 14 -36
25 -44 25 -9 0 -12 5 -9 10 3 6 5 9 3 9 -2 -1 -11 -3 -21 -6z"/>
<path d="M4925 7060 c-3 -5 -1 -10 4 -10 6 0 11 5 11 10 0 6 -2 10 -4 10 -3 0
-8 -4 -11 -10z"/>
<path d="M4760 7053 c1 -14 30 -47 36 -41 8 8 -14 48 -26 48 -6 0 -10 -3 -10
-7z"/>
<path d="M4730 7046 c0 -2 8 -10 18 -17 15 -13 16 -12 3 4 -13 16 -21 21 -21
13z"/>
<path d="M3630 7030 c0 -5 7 -10 15 -10 8 0 15 5 15 10 0 6 -7 10 -15 10 -8 0
-15 -4 -15 -10z"/>
<path d="M4496 7025 c4 -8 18 -15 32 -15 24 0 28 6 7 10 -5 1 -18 6 -27 11
-14 7 -16 6 -12 -6z"/>
<path d="M5085 7030 c3 -5 8 -10 11 -10 2 0 4 5 4 10 0 6 -5 10 -11 10 -5 0
-7 -4 -4 -10z"/>
<path d="M2750 7026 c0 -2 7 -7 16 -10 8 -3 12 -2 9 4 -6 10 -25 14 -25 6z"/>
<path d="M3018 7023 c7 -3 16 -2 19 1 4 3 -2 6 -13 5 -11 0 -14 -3 -6 -6z"/>
<path d="M3690 7015 c14 -17 90 -21 90 -4 0 7 -11 9 -27 6 -15 -3 -38 -1 -51
4 -22 8 -23 8 -12 -6z"/>
<path d="M3527 7009 c-10 -6 -28 -8 -39 -6 -15 4 -18 3 -10 -5 5 -5 41 -12 79
-15 61 -5 66 -4 48 10 -30 22 -58 27 -78 16z"/>
<path d="M4884 6998 c3 -13 5 -29 5 -35 1 -7 6 -13 11 -13 7 0 7 6 0 19 -7 14
-7 22 0 26 12 7 4 25 -11 25 -5 0 -7 -10 -5 -22z"/>
<path d="M4820 6992 c0 -11 7 -22 15 -26 8 -3 15 -11 15 -18 0 -10 -2 -10 -9
1 -7 10 -10 10 -16 1 -4 -7 -3 -15 1 -19 5 -3 15 -17 22 -31 7 -14 10 -17 8
-7 -4 12 0 17 17 17 12 0 29 -5 37 -11 12 -8 10 -10 -10 -5 -22 4 -23 4 -7 -8
9 -7 17 -18 17 -24 0 -5 7 -12 15 -16 12 -4 13 -2 6 13 -7 12 -7 21 0 28 8 8
5 13 -10 18 -12 3 -21 10 -21 15 0 4 -9 10 -20 13 -15 4 -20 14 -20 38 0 18
-3 29 -7 26 -3 -4 -12 -2 -20 4 -10 9 -13 7 -13 -9z"/>
<path d="M4946 6994 c-3 -9 -11 -12 -17 -9 -13 9 -8 -27 6 -37 6 -4 1 -8 -9
-8 -15 0 -17 -3 -9 -11 17 -17 35 0 29 25 -4 18 -1 22 16 22 11 -1 22 6 23 14
3 21 -32 23 -39 4z"/>
<path d="M2750 6996 c0 -2 7 -6 15 -10 8 -3 15 -1 15 4 0 6 -7 10 -15 10 -8 0
-15 -2 -15 -4z"/>
<path d="M5087 6986 c-6 -14 0 -26 14 -26 8 0 6 26 -3 35 -3 3 -8 -1 -11 -9z"/>
<path d="M2841 6986 c2 -2 18 -6 34 -10 22 -5 26 -4 15 4 -14 9 -59 15 -49 6z"/>
<path d="M4070 6970 c20 -13 43 -13 35 0 -3 6 -16 10 -28 10 -18 0 -19 -2 -7
-10z"/>
<path d="M5117 6960 c3 -11 14 -25 24 -31 16 -8 18 -6 16 8 -4 26 -16 43 -32
43 -8 0 -11 -7 -8 -20z"/>
<path d="M2576 6962 c-2 -4 4 -8 14 -8 10 0 16 4 14 8 -3 4 -9 8 -14 8 -5 0
-11 -4 -14 -8z"/>
<path d="M2690 6940 c0 -5 5 -10 10 -10 6 0 10 5 10 10 0 6 -4 10 -10 10 -5 0
-10 -4 -10 -10z"/>
<path d="M3028 6943 c7 -3 16 -2 19 1 4 3 -2 6 -13 5 -11 0 -14 -3 -6 -6z"/>
<path d="M4258 6943 c7 -3 16 -2 19 1 4 3 -2 6 -13 5 -11 0 -14 -3 -6 -6z"/>
<path d="M2940 6929 c0 -5 5 -7 10 -4 6 3 10 8 10 11 0 2 -4 4 -10 4 -5 0 -10
-5 -10 -11z"/>
<path d="M2530 6926 c0 -2 7 -7 16 -10 8 -3 12 -2 9 4 -6 10 -25 14 -25 6z"/>
<path d="M2971 6926 c12 -10 60 -16 54 -6 -3 5 -18 10 -32 10 -15 0 -24 -2
-22 -4z"/>
<path d="M4983 6905 c0 -15 4 -22 11 -18 6 3 6 0 -1 -8 -7 -7 -13 -17 -13 -21
0 -14 15 -9 26 10 9 14 8 23 -6 39 l-17 22 0 -24z"/>
<path d="M3530 6890 c-12 -8 -11 -10 8 -10 12 0 22 5 22 10 0 13 -11 13 -30 0z"/>
<path d="M4477 6871 c3 -12 9 -21 14 -21 14 0 11 16 -5 29 -12 10 -13 8 -9 -8z"/>
<path d="M3430 6870 c-23 -7 -23 -8 -3 -9 12 -1 25 4 28 9 3 6 5 10 3 9 -2 -1
-14 -5 -28 -9z"/>
<path d="M5020 6855 c-10 -12 -9 -15 4 -15 10 0 15 4 12 9 -4 5 0 12 6 14 8 4
9 6 2 6 -6 1 -17 -6 -24 -14z"/>
<path d="M3515 6849 c-11 -17 1 -21 15 -4 8 9 8 15 2 15 -6 0 -14 -5 -17 -11z"/>
<path d="M4540 6840 c0 -5 5 -10 11 -10 5 0 7 5 4 10 -3 6 -8 10 -11 10 -2 0
-4 -4 -4 -10z"/>
<path d="M2497 6810 c-17 -16 -16 -17 15 -16 37 1 49 17 21 27 -11 4 -25 -1
-36 -11z"/>
<path d="M2577 6809 c7 -7 15 -10 18 -7 3 3 -2 9 -12 12 -14 6 -15 5 -6 -5z"/>
<path d="M3285 6810 c-4 -6 -10 -8 -14 -6 -4 3 -8 -1 -8 -9 0 -19 23 -19 30
-1 3 8 23 17 44 19 l38 4 -42 1 c-23 1 -45 -3 -48 -8z"/>
<path d="M3323 6793 c9 -2 25 -2 35 0 9 3 1 5 -18 5 -19 0 -27 -2 -17 -5z"/>
<path d="M4940 6791 c0 -5 5 -13 10 -16 6 -3 10 -2 10 4 0 5 -4 13 -10 16 -5
3 -10 2 -10 -4z"/>
<path d="M3190 6780 c0 -13 30 -13 50 0 11 7 7 10 -17 10 -18 0 -33 -4 -33
-10z"/>
<path d="M5096 6735 c4 -8 11 -15 16 -15 6 0 5 6 -2 15 -7 8 -14 15 -16 15 -2
0 -1 -7 2 -15z"/>
<path d="M2390 6702 c0 -5 6 -17 14 -28 12 -15 17 -16 27 -7 10 10 9 14 -4 19
-9 3 -14 10 -11 15 3 5 -2 9 -10 9 -9 0 -16 -4 -16 -8z"/>
<path d="M5241 6574 c0 -11 3 -14 6 -6 3 7 2 16 -1 19 -3 4 -6 -2 -5 -13z"/>
<path d="M5481 6474 c0 -11 3 -14 6 -6 3 7 2 16 -1 19 -3 4 -6 -2 -5 -13z"/>
<path d="M5460 6435 c0 -8 2 -15 4 -15 2 0 6 7 10 15 3 8 1 15 -4 15 -6 0 -10
-7 -10 -15z"/>
<path d="M5436 6323 c-6 -14 -5 -15 5 -6 7 7 10 15 7 18 -3 3 -9 -2 -12 -12z"/>
<path d="M2140 6295 c-13 -14 -20 -28 -17 -32 4 -3 7 -1 7 6 0 7 5 9 10 6 8
-5 7 -12 -2 -23 -12 -15 -11 -16 4 -3 10 7 15 17 12 22 -3 5 0 18 6 29 14 27
8 25 -20 -5z"/>
<path d="M2100 6210 c0 -17 -47 -60 -56 -51 -4 3 -4 0 0 -6 4 -7 2 -22 -4 -33
-15 -29 5 -25 24 5 9 14 20 24 24 21 4 -2 15 8 24 24 14 25 14 31 2 41 -11 9
-14 9 -14 -1z"/>
<path d="M5450 6204 c0 -7 27 -34 34 -34 13 0 5 16 -14 28 -11 7 -20 10 -20 6z"/>
<path d="M5490 6203 c14 -7 13 -40 -2 -46 -10 -3 -9 -9 2 -21 14 -14 16 -12
15 26 0 25 -5 42 -13 44 -7 1 -8 0 -2 -3z"/>
<path d="M5546 6185 c-3 -8 -1 -15 3 -15 5 0 11 7 15 15 3 8 1 15 -3 15 -5 0
-11 -7 -15 -15z"/>
<path d="M5430 6160 c0 -5 4 -10 9 -10 6 0 13 5 16 10 3 6 -1 10 -9 10 -9 0
-16 -4 -16 -10z"/>
<path d="M2134 6146 c-3 -9 -12 -16 -20 -16 -8 0 -14 -4 -14 -10 0 -17 26 -11
44 9 11 13 14 21 7 26 -6 3 -14 -1 -17 -9z"/>
<path d="M5525 6150 c3 -5 8 -10 11 -10 2 0 4 5 4 10 0 6 -5 10 -11 10 -5 0
-7 -4 -4 -10z"/>
<path d="M5746 5925 c10 -70 20 -96 38 -89 17 7 11 30 -10 38 -8 3 -14 11 -14
18 0 9 3 9 10 -2 8 -11 9 -7 4 15 -4 17 -13 39 -21 50 -12 18 -13 14 -7 -30z"/>
<path d="M5726 5845 c5 -13 4 -16 -4 -11 -7 4 -12 3 -12 -1 0 -11 21 -33 32
-33 14 0 9 37 -7 50 -13 11 -14 10 -9 -5z"/>
<path d="M5779 5813 c-1 -5 -1 -11 0 -15 0 -5 -4 -8 -9 -8 -7 0 -8 -14 -4 -37
9 -52 24 -66 19 -17 -5 37 -4 37 5 9 5 -16 7 -39 4 -49 -5 -14 -2 -18 9 -13
10 4 14 1 11 -6 -2 -7 10 -32 28 -57 37 -49 52 -36 23 20 -9 18 -14 38 -11 46
3 9 1 12 -4 9 -6 -3 -10 -4 -10 -1 0 2 -3 13 -6 23 -5 15 -4 16 6 3 13 -16 12
-13 -9 41 -13 33 -49 69 -52 52z"/>
<path d="M5710 5785 c0 -15 5 -24 13 -22 6 1 11 -4 9 -11 -1 -8 2 -11 7 -8 6
4 3 18 -6 36 -18 37 -23 38 -23 5z"/>
<path d="M5680 5786 c0 -9 5 -16 10 -16 6 0 10 4 10 9 0 6 -4 13 -10 16 -5 3
-10 -1 -10 -9z"/>
<path d="M2116 5752 c-2 -4 4 -8 15 -8 10 0 19 4 19 8 0 4 -6 8 -14 8 -8 0
-17 -4 -20 -8z"/>
<path d="M2127 5711 c-4 -17 -3 -21 5 -13 5 5 8 16 6 23 -3 8 -7 3 -11 -10z"/>
<path d="M5746 5717 c3 -10 9 -15 12 -12 3 3 0 11 -7 18 -10 9 -11 8 -5 -6z"/>
<path d="M5908 5645 c5 -11 12 -42 16 -69 3 -27 14 -59 24 -69 9 -11 11 -17 5
-13 -7 4 -13 3 -13 -2 0 -6 7 -13 16 -16 13 -5 15 0 10 36 -3 23 -10 46 -16
52 -5 5 -10 20 -10 32 0 12 -9 32 -21 45 -16 20 -18 20 -11 4z"/>
<path d="M5745 5610 c-3 -5 -1 -10 4 -10 6 0 11 5 11 10 0 6 -2 10 -4 10 -3 0
-8 -4 -11 -10z"/>
<path d="M5786 5555 c4 -8 8 -15 10 -15 2 0 4 7 4 15 0 8 -4 15 -10 15 -5 0
-7 -7 -4 -15z"/>
<path d="M5829 5552 c6 -12 16 -24 22 -28 8 -4 8 -1 0 14 -6 12 -16 24 -22 28
-8 4 -8 1 0 -14z"/>
<path d="M5836 5502 c-3 -6 1 -13 10 -16 8 -3 12 -10 9 -16 -3 -5 2 -10 11
-10 16 0 15 2 -2 23 -10 12 -20 23 -20 25 -1 2 -5 -1 -8 -6z"/>
<path d="M5790 5495 c1 -6 7 -21 16 -35 l15 -25 -7 25 c-7 26 -24 52 -24 35z"/>
<path d="M5977 5436 c10 -13 20 -20 21 -15 7 17 -7 39 -23 39 -14 0 -14 -3 2
-24z"/>
<path d="M5866 5435 c4 -8 10 -12 15 -9 11 6 2 24 -11 24 -5 0 -7 -7 -4 -15z"/>
<path d="M5820 5420 c0 -5 5 -10 11 -10 5 0 7 5 4 10 -3 6 -8 10 -11 10 -2 0
-4 -4 -4 -10z"/>
<path d="M5851 5414 c0 -11 3 -14 6 -6 3 7 2 16 -1 19 -3 4 -6 -2 -5 -13z"/>
<path d="M5860 5376 c0 -12 48 -55 54 -49 3 3 18 -4 33 -18 l28 -24 -20 25
c-29 36 -68 69 -82 70 -7 0 -13 -2 -13 -4z"/>
<path d="M5910 5285 c7 -8 17 -15 22 -15 5 0 3 7 -6 15 -8 8 -18 15 -22 15 -3
0 -1 -7 6 -15z"/>
<path d="M5946 5228 c3 -5 10 -6 15 -3 13 9 11 12 -6 12 -8 0 -12 -4 -9 -9z"/>
<path d="M5926 5197 c3 -10 9 -15 12 -12 3 3 0 11 -7 18 -10 9 -11 8 -5 -6z"/>
<path d="M5940 5139 c0 -5 5 -7 10 -4 6 3 10 8 10 11 0 2 -4 4 -10 4 -5 0 -10
-5 -10 -11z"/>
<path d="M5946 5095 c-3 -9 0 -15 9 -15 9 0 12 6 9 15 -4 8 -7 15 -9 15 -2 0
-5 -7 -9 -15z"/>
<path d="M5980 5074 c0 -11 7 -29 15 -40 13 -17 14 -16 3 16 -14 43 -18 49
-18 24z"/>
<path d="M6021 4883 c-1 -17 16 -25 25 -12 4 7 3 9 -4 5 -5 -3 -13 0 -15 6 -4
9 -6 10 -6 1z"/>
<path d="M6004 4446 c-3 -8 -4 -29 -2 -48 3 -29 4 -27 8 15 5 48 3 58 -6 33z"/>
<path d="M5890 4359 c0 -5 5 -7 10 -4 6 3 10 8 10 11 0 2 -4 4 -10 4 -5 0 -10
-5 -10 -11z"/>
<path d="M3890 4090 c0 -5 7 -10 16 -10 8 0 12 5 9 10 -3 6 -10 10 -16 10 -5
0 -9 -4 -9 -10z"/>
<path d="M2032 4060 c0 -14 2 -19 5 -12 2 6 2 18 0 25 -3 6 -5 1 -5 -13z"/>
<path d="M2583 4003 c-10 -3 -9 -10 2 -27 9 -13 13 -32 9 -42 -4 -14 -4 -16 4
-5 8 11 11 10 15 -5 4 -18 5 -18 6 1 0 11 -6 31 -15 43 -8 12 -12 27 -9 32 7
11 6 11 -12 3z"/>
<path d="M5048 3943 c7 -3 16 -2 19 1 4 3 -2 6 -13 5 -11 0 -14 -3 -6 -6z"/>
<path d="M2020 3933 c0 -5 5 -15 10 -23 8 -12 10 -11 10 8 0 12 -4 22 -10 22
-5 0 -10 -3 -10 -7z"/>
<path d="M4945 3933 c-11 -2 -30 -6 -42 -9 -13 -2 -23 -11 -23 -19 0 -19 14
-19 30 0 7 8 25 15 41 15 16 0 29 5 29 10 0 10 -2 11 -35 3z"/>
<path d="M2643 3877 c1 -32 3 -35 22 -25 18 10 18 9 7 -5 -14 -16 -8 -57 8
-57 4 0 13 13 18 29 9 24 7 32 -8 46 -11 10 -24 14 -31 9 -7 -4 -10 -3 -6 2 3
6 2 16 -3 23 -5 9 -7 0 -7 -22z"/>
<path d="M2729 3798 c-9 -30 -4 -33 45 -35 28 0 44 1 36 4 -8 3 -23 10 -34 15
-13 7 -16 7 -12 -1 8 -13 4 -14 -18 -5 -9 3 -13 10 -10 15 3 5 3 9 0 9 -3 0
-6 -1 -7 -2z"/>
<path d="M4800 3697 c0 -13 -12 -17 -62 -19 l-63 -3 35 -16 c19 -9 44 -26 54
-38 25 -28 93 -30 91 -3 -2 27 -14 42 -29 36 -19 -7 -32 16 -15 27 11 6 11 11
1 21 -9 9 -12 9 -12 -5z"/>
<path d="M2888 3683 c7 -3 16 -2 19 1 4 3 -2 6 -13 5 -11 0 -14 -3 -6 -6z"/>
<path d="M3925 3590 c3 -5 10 -10 16 -10 5 0 9 5 9 10 0 6 -7 10 -16 10 -8 0
-12 -4 -9 -10z"/>
<path d="M2880 3536 c0 -9 5 -16 10 -16 6 0 10 4 10 9 0 6 -4 13 -10 16 -5 3
-10 -1 -10 -9z"/>
<path d="M2540 3394 c0 -8 5 -12 10 -9 6 3 10 10 10 16 0 5 -4 9 -10 9 -5 0
-10 -7 -10 -16z"/>
<path d="M2591 3374 c0 -11 3 -14 6 -6 3 7 2 16 -1 19 -3 4 -6 -2 -5 -13z"/>
<path d="M2496 3347 c3 -10 9 -15 12 -12 3 3 0 11 -7 18 -10 9 -11 8 -5 -6z"/>
<path d="M1842 3325 c0 -16 2 -22 5 -12 2 9 2 23 0 30 -3 6 -5 -1 -5 -18z"/>
<path d="M2547 3300 c-8 -11 -17 -18 -20 -15 -4 3 -4 2 -1 -2 3 -5 9 -8 12 -8
4 0 13 -4 20 -8 6 -5 12 -4 12 2 0 5 6 11 13 13 9 2 8 8 -5 20 -16 16 -18 16
-31 -2z m23 -10 c0 -5 -5 -10 -11 -10 -5 0 -7 5 -4 10 3 6 8 10 11 10 2 0 4
-4 4 -10z"/>
<path d="M2830 3304 c0 -13 -3 -14 -15 -4 -12 10 -15 10 -15 -4 0 -9 -8 -16
-19 -16 -27 0 -33 -14 -33 -69 0 -54 19 -102 32 -81 6 11 12 10 25 -4 15 -14
16 -22 6 -42 -6 -14 -11 -35 -11 -47 0 -17 -2 -19 -10 -7 -5 8 -11 12 -14 9
-8 -8 27 -78 39 -79 6 0 16 -9 23 -20 7 -11 19 -20 27 -20 8 0 15 -9 15 -20 0
-14 7 -20 23 -20 32 0 61 -33 55 -64 -4 -17 -1 -23 9 -19 8 3 13 21 13 44 0
28 4 39 15 39 21 0 19 14 -6 36 -16 14 -23 15 -26 7 -7 -20 -20 -16 -53 16
-23 21 -30 37 -30 65 0 32 3 36 25 36 29 0 31 7 8 39 -11 16 -16 41 -14 73 2
45 1 48 -24 48 -24 0 -25 3 -25 54 0 30 -4 58 -10 61 -5 3 -10 -1 -10 -11z
m50 -211 c0 -22 -2 -25 -10 -13 -13 20 -13 40 0 40 6 0 10 -12 10 -27z"/>
<path d="M2712 3285 c0 -16 2 -22 5 -12 2 9 2 23 0 30 -3 6 -5 -1 -5 -18z"/>
<path d="M1831 3264 c0 -11 3 -14 6 -6 3 7 2 16 -1 19 -3 4 -6 -2 -5 -13z"/>
<path d="M2608 3235 c2 -15 0 -25 -7 -25 -6 0 -11 7 -11 15 0 8 -4 15 -10 15
-15 0 -12 -15 8 -33 9 -9 23 -13 29 -9 12 7 6 62 -7 62 -4 0 -5 -11 -2 -25z"/>
<path d="M3958 3193 c7 -3 16 -2 19 1 4 3 -2 6 -13 5 -11 0 -14 -3 -6 -6z"/>
<path d="M4121 3196 c2 -2 14 -9 26 -15 19 -10 22 -9 17 4 -4 8 -15 15 -27 15
-11 0 -18 -2 -16 -4z"/>
<path d="M2070 3090 c-8 -5 -11 -12 -7 -16 4 -4 13 -2 19 4 15 15 7 24 -12 12z"/>
<path d="M2960 3024 c0 -14 3 -14 15 -4 8 7 15 14 15 16 0 2 -7 4 -15 4 -8 0
-15 -7 -15 -16z"/>
<path d="M1707 2753 c-4 -3 -7 -11 -7 -17 0 -6 5 -5 12 2 6 6 9 14 7 17 -3 3
-9 2 -12 -2z"/>
<path d="M3020 2470 c-6 -11 -8 -20 -6 -20 3 0 10 9 16 20 6 11 8 20 6 20 -3
0 -10 -9 -16 -20z"/>
<path d="M1707 2451 c-3 -16 -9 -40 -13 -55 -8 -32 12 -35 22 -3 9 29 12 87 3
87 -4 0 -9 -13 -12 -29z"/>
<path d="M2644 2416 c3 -11 0 -28 -5 -38 -12 -23 -4 -54 17 -62 17 -6 58 30
44 39 -6 4 -4 15 4 27 22 31 4 58 -35 55 -24 -2 -29 -6 -25 -21z"/>
<path d="M2995 2411 c-3 -5 -2 -12 3 -15 5 -3 9 1 9 9 0 17 -3 19 -12 6z"/>
<path d="M3065 2390 c-3 -6 1 -7 9 -4 18 7 21 14 7 14 -6 0 -13 -4 -16 -10z"/>
<path d="M1697 2343 c-4 -3 -7 -11 -7 -17 0 -6 5 -5 12 2 6 6 9 14 7 17 -3 3
-9 2 -12 -2z"/>
<path d="M4350 2270 c-7 -14 -17 -28 -22 -31 -11 -7 40 -59 58 -59 9 0 14 11
14 30 0 17 5 30 11 30 8 0 8 5 -1 15 -7 8 -18 15 -25 15 -8 0 -15 6 -17 12 -3
8 -10 3 -18 -12z"/>
<path d="M4360 2160 c8 -5 22 -10 30 -10 13 0 13 1 0 10 -8 5 -22 10 -30 10
-13 0 -13 -1 0 -10z"/>
<path d="M110 2139 c0 -17 24 -32 34 -22 11 11 6 24 -5 17 -6 -3 -15 0 -20 7
-7 11 -9 11 -9 -2z"/>
<path d="M4761 2113 c0 -6 -8 -19 -17 -28 -9 -9 -14 -19 -11 -22 11 -10 39 27
34 45 -3 9 -5 12 -6 5z"/>
<path d="M4653 2053 c-7 -3 -13 -12 -13 -21 0 -15 2 -15 17 1 18 18 16 27 -4
20z"/>
<path d="M0 1957 c0 -24 2 -25 30 -14 31 12 40 27 16 27 -8 0 -21 3 -30 6 -12
5 -16 0 -16 -19z"/>
<path d="M1591 1794 c0 -11 3 -14 6 -6 3 7 2 16 -1 19 -3 4 -6 -2 -5 -13z"/>
<path d="M2571 1794 c0 -11 3 -14 6 -6 3 7 2 16 -1 19 -3 4 -6 -2 -5 -13z"/>
<path d="M2596 1786 c-7 -27 1 -56 16 -56 5 0 6 6 1 12 -4 7 -6 25 -4 40 3 34
-5 37 -13 4z"/>
<path d="M85 1760 c3 -5 8 -10 11 -10 2 0 4 5 4 10 0 6 -5 10 -11 10 -5 0 -7
-4 -4 -10z"/>
<path d="M196 1725 c-20 -30 -19 -30 10 -39 25 -8 47 14 42 41 -5 28 -33 27
-52 -2z"/>
<path d="M2276 1705 c4 -8 11 -15 16 -15 6 0 5 6 -2 15 -7 8 -14 15 -16 15 -2
0 -1 -7 2 -15z"/>
<path d="M2594 1699 c-3 -6 -2 -14 4 -18 13 -8 41 -121 35 -138 -3 -7 0 -13 6
-13 6 0 11 -8 11 -17 0 -10 7 -27 16 -38 13 -18 14 -17 8 15 -4 19 -12 47 -19
63 -8 15 -9 27 -4 27 6 0 6 6 0 18 -5 9 -12 38 -16 65 -7 45 -25 61 -41 36z"/>
<path d="M2226 1655 c10 -16 14 -26 8 -22 -7 4 -18 -1 -25 -10 -12 -15 -12
-16 5 -10 16 6 17 5 6 -8 -9 -11 -10 -18 -1 -28 6 -8 8 -17 4 -20 -11 -12 -40
-7 -53 8 -18 22 -24 11 -10 -16 11 -19 10 -25 -6 -36 -10 -7 -29 -13 -42 -13
-19 0 -22 -4 -17 -20 5 -14 2 -20 -10 -20 -12 0 -15 5 -9 22 6 20 5 21 -9 10
-9 -8 -20 -11 -25 -8 -5 3 -8 -5 -7 -17 3 -31 -5 -41 -19 -22 -16 22 -39 11
-55 -28 -8 -17 -30 -49 -48 -70 -28 -31 -32 -41 -22 -53 6 -8 8 -14 5 -14 -12
0 -50 22 -59 34 -6 7 -7 4 -3 -6 3 -10 -4 -34 -15 -53 -20 -33 -38 -39 -65
-22 -7 4 -18 -1 -25 -10 -12 -15 -12 -16 3 -10 10 3 20 2 23 -3 6 -9 -42 -6
-52 4 -3 3 -2 6 4 6 6 0 13 6 16 13 3 7 -3 13 -12 13 -23 0 -20 -32 5 -50 19
-14 18 -15 -5 -40 -14 -14 -30 -26 -38 -26 -7 0 -13 -7 -13 -17 0 -9 3 -13 6
-10 4 3 16 1 27 -5 l21 -11 -22 -17 c-23 -19 -20 -32 6 -23 10 4 13 2 8 -5 -4
-6 -1 -20 6 -31 9 -15 9 -23 -1 -35 -10 -12 -10 -16 -2 -16 7 0 10 -8 7 -17
-5 -19 25 -63 43 -63 6 0 9 -19 7 -45 -1 -25 3 -53 9 -63 17 -24 28 -89 16
-96 -13 -9 17 -66 35 -66 21 0 17 -17 -6 -23 -20 -5 -28 -27 -10 -27 6 0 10
-18 10 -40 0 -22 5 -40 10 -40 6 0 10 -5 10 -11 0 -7 8 -18 18 -26 16 -14 16
-14 0 -9 -22 7 -25 -22 -4 -30 9 -4 13 -19 12 -45 -2 -34 1 -40 15 -36 10 3
16 0 13 -7 -2 -6 1 -34 7 -61 11 -54 16 -86 19 -125 l2 -25 8 25 c8 24 8 24 9
3 1 -13 6 -23 11 -23 6 0 9 19 8 44 -2 32 2 50 16 65 17 19 17 21 3 21 -14 0
-17 10 -17 49 0 39 -6 56 -26 80 -17 20 -21 31 -12 31 27 0 48 56 53 144 2 47
10 96 16 109 14 26 56 67 70 67 5 0 9 18 9 41 l0 41 45 -4 c25 -2 45 -2 45 0
0 2 -9 15 -20 29 -11 14 -20 32 -20 39 0 7 -10 14 -22 16 -18 3 -14 6 16 12
21 5 41 5 45 0 9 -14 45 -14 53 -1 6 9 10 9 16 0 4 -6 8 11 9 38 l1 49 -39 0
c-28 0 -39 4 -39 15 0 11 11 15 39 15 38 0 40 2 39 31 -1 16 -4 25 -8 19 -5
-8 -18 -2 -39 19 -35 35 -38 43 -13 39 15 -3 17 6 14 80 -3 77 -2 82 17 82 18
0 21 6 21 39 0 29 -5 41 -17 44 -14 4 -12 5 5 6 12 0 22 -3 22 -9 0 -5 19 -9
43 -9 24 1 32 4 19 6 -23 4 -23 7 -19 88 4 77 3 84 -17 93 -21 11 -21 11 3 11
17 1 22 5 17 17 -4 10 1 22 11 29 17 13 17 14 0 32 -9 11 -17 27 -17 37 0 14
-4 15 -21 6 -15 -9 -24 -8 -36 2 -12 10 -12 6 3 -17z m54 -40 c0 -8 -9 -15
-20 -15 -14 0 -18 -5 -13 -17 4 -14 3 -15 -6 -7 -15 14 -3 47 15 40 8 -3 14
-1 14 4 0 6 2 10 5 10 3 0 5 -7 5 -15z m-190 -178 c9 -3 3 -6 -12 -6 -20 -1
-28 4 -28 15 0 12 4 14 13 7 6 -6 19 -13 27 -16z m70 -47 c0 -21 -15 -27 -25
-10 -7 12 2 30 16 30 5 0 9 -9 9 -20z m0 -176 c0 -33 -2 -36 -22 -30 -13 3
-31 6 -40 6 -13 0 -18 8 -18 30 0 28 2 30 40 30 39 0 40 -1 40 -36z m-305 -74
c-3 -5 -13 -6 -21 -3 -12 4 -13 8 -3 14 15 9 32 2 24 -11z m305 4 c0 -11 -9
-14 -37 -12 -52 4 -56 28 -4 28 30 0 41 -4 41 -16z m-203 -164 c24 0 43 -4 43
-10 0 -15 -96 -12 -109 3 -13 17 -2 32 13 17 5 -5 29 -10 53 -10z m203 -30 c0
-12 -37 -12 -65 0 -15 7 -10 9 23 9 23 1 42 -3 42 -9z m70 0 c0 -5 -4 -10 -10
-10 -5 0 -10 -9 -10 -20 0 -11 -4 -20 -10 -20 -14 0 -12 28 3 45 14 17 27 19
27 5z m-280 -60 c6 0 10 7 10 15 0 23 16 18 35 -11 15 -23 15 -27 0 -50 -19
-29 -41 -33 -25 -5 5 11 15 21 22 23 15 5 1 28 -18 28 -9 0 -12 -5 -8 -11 4
-8 0 -9 -15 -4 -12 4 -21 2 -21 -4 0 -6 5 -11 10 -11 6 0 10 -7 10 -15 0 -22
-18 -18 -31 7 -8 15 -8 23 -1 26 5 1 8 13 5 25 -4 20 -3 20 7 5 6 -10 15 -18
20 -18z m-160 -50 c0 -5 -4 -10 -10 -10 -5 0 -10 5 -10 10 0 6 5 10 10 10 6 0
10 -4 10 -10z m120 0 c0 -5 -4 -10 -10 -10 -5 0 -10 5 -10 10 0 6 5 10 10 10
6 0 10 -4 10 -10z m100 -70 c0 -36 -22 -110 -32 -110 -14 0 -9 31 7 46 21 22
19 52 -5 59 -29 9 -25 35 5 35 21 0 25 -5 25 -30z m-56 -42 c16 -19 17 -20 1
-15 -9 4 -21 7 -26 7 -5 0 -9 7 -9 15 0 21 12 19 34 -7z m-14 -240 c0 -5 -4
-8 -10 -8 -5 0 -10 10 -10 23 0 18 2 19 10 7 5 -8 10 -18 10 -22z m-23 -150
c-3 -8 -6 -5 -6 6 -1 11 2 17 5 13 3 -3 4 -12 1 -19z"/>
<path d="M5603 1635 c-3 -9 -3 -18 -1 -21 3 -3 8 4 11 16 6 23 -1 27 -10 5z"/>
<path d="M171 1599 c-14 -40 -11 -44 11 -15 9 13 13 28 8 35 -5 9 -11 3 -19
-20z"/>
<path d="M2517 1543 c-3 -5 -8 -23 -12 -40 -5 -27 -4 -32 8 -27 9 3 16 -3 20
-16 4 -17 3 -19 -8 -10 -12 10 -13 -3 -9 -76 3 -49 8 -91 12 -94 12 -9 32 -98
32 -145 0 -25 4 -45 9 -45 5 0 12 -28 16 -62 4 -35 11 -68 16 -74 11 -13 15
-91 6 -101 -4 -3 1 -16 12 -27 10 -12 21 -41 24 -65 3 -24 11 -47 18 -51 6 -5
9 -15 6 -24 -8 -21 2 -46 19 -46 8 0 14 -5 14 -11 0 -6 -9 -8 -22 -4 -22 7
-22 6 -4 -7 12 -10 16 -20 11 -28 -6 -10 -3 -12 13 -8 13 4 20 2 16 -4 -3 -5
3 -12 15 -15 12 -3 21 -10 21 -15 0 -5 11 -19 23 -32 15 -15 28 -47 37 -87 13
-63 30 -100 30 -65 0 10 5 14 11 10 6 -3 9 -20 6 -38 -2 -17 3 -46 11 -63 14
-29 21 -33 54 -33 31 0 38 -3 38 -20 0 -11 3 -20 8 -20 11 0 46 -63 43 -80 -3
-24 39 -19 76 9 33 25 36 41 5 36 -9 -1 -11 0 -4 2 14 5 15 13 2 33 -5 9 -5
19 2 27 8 10 6 13 -5 13 -9 0 -19 9 -22 20 -3 11 -11 20 -16 20 -5 0 -9 10 -9
23 0 13 -9 33 -20 45 -11 11 -18 27 -15 34 6 16 -49 131 -58 122 -7 -7 -22 44
-19 62 1 6 -4 17 -12 23 -8 7 -13 18 -10 25 3 7 -2 19 -11 26 -8 7 -15 21 -15
32 0 10 -6 21 -14 24 -8 3 -18 19 -21 36 -4 16 -16 39 -26 49 -10 10 -19 28
-19 39 0 11 -4 20 -9 20 -5 0 -18 22 -30 49 -11 28 -26 53 -31 56 -6 3 -10 19
-10 34 0 15 -5 32 -11 38 -7 7 -7 23 1 53 9 34 9 45 -2 51 -11 7 -10 11 2 19
13 9 13 11 0 20 -10 7 -12 12 -4 18 12 8 10 51 -4 97 -14 43 -65 149 -74 153
-4 2 -8 12 -8 22 0 9 -7 23 -15 30 -9 8 -15 8 -15 2 0 -6 -9 -10 -20 -9 -12 1
-20 8 -20 19 0 9 -4 19 -10 23 -5 3 -7 12 -3 20 5 15 -12 21 -20 8z m531
-1318 c-3 -3 -9 2 -12 12 -6 14 -5 15 5 6 7 -7 10 -15 7 -18z m22 -25 c0 -6
-9 -20 -20 -32 l-19 -21 11 31 c12 31 28 43 28 22z"/>
<path d="M2060 1530 c-9 -6 -10 -10 -3 -10 6 0 15 5 18 10 8 12 4 12 -15 0z"/>
<path d="M125 1520 c-3 -6 1 -7 9 -4 18 7 21 14 7 14 -6 0 -13 -4 -16 -10z"/>
<path d="M2565 1510 c3 -5 10 -10 16 -10 5 0 9 5 9 10 0 6 -7 10 -16 10 -8 0
-12 -4 -9 -10z"/>
<path d="M2290 1480 c0 -13 5 -20 13 -17 6 2 12 10 12 17 0 7 -6 15 -12 18 -8
2 -13 -5 -13 -18z"/>
<path d="M1960 1475 c0 -8 4 -15 10 -15 5 0 7 7 4 15 -4 8 -8 15 -10 15 -2 0
-4 -7 -4 -15z"/>
<path d="M1990 1486 c0 -2 7 -7 16 -10 8 -3 12 -2 9 4 -6 10 -25 14 -25 6z"/>
<path d="M1933 1443 c-15 -5 -17 -23 -4 -23 5 0 11 7 15 15 3 8 4 15 3 14 -1
0 -8 -3 -14 -6z"/>
<path d="M2680 1431 c0 -20 17 -37 27 -28 7 8 -7 47 -18 47 -5 0 -9 -9 -9 -19z"/>
<path d="M1874 1416 c-18 -19 -36 -57 -31 -63 3 -2 8 5 12 17 5 15 12 19 25
15 24 -8 36 13 19 30 -11 11 -16 11 -25 1z m26 -16 c0 -5 -4 -10 -10 -10 -5 0
-10 5 -10 10 0 6 5 10 10 10 6 0 10 -4 10 -10z"/>
<path d="M1900 1370 c-9 -6 -10 -10 -3 -10 6 0 15 5 18 10 8 12 4 12 -15 0z"/>
<path d="M2240 1185 c0 -35 23 -65 52 -65 18 0 28 5 28 15 0 8 -5 15 -10 15
-6 0 -16 11 -22 25 -12 27 -48 35 -48 10z"/>
<path d="M1660 1180 c0 -5 5 -10 11 -10 5 0 7 5 4 10 -3 6 -8 10 -11 10 -2 0
-4 -4 -4 -10z"/>
<path d="M2748 1142 c-21 -4 -24 -22 -4 -22 7 0 19 -7 26 -15 9 -11 9 -15 1
-15 -7 0 -9 -4 -6 -10 12 -20 35 -10 35 15 0 15 -6 25 -14 25 -8 0 -16 6 -18
13 -2 7 -11 11 -20 9z"/>
<path d="M3266 1133 c-6 -14 -5 -15 5 -6 7 7 10 15 7 18 -3 3 -9 -2 -12 -12z"/>
<path d="M1470 1099 c0 -5 5 -7 10 -4 6 3 10 8 10 11 0 2 -4 4 -10 4 -5 0 -10
-5 -10 -11z"/>
<path d="M3286 1097 c3 -10 9 -15 12 -12 3 3 0 11 -7 18 -10 9 -11 8 -5 -6z"/>
<path d="M430 1076 c-6 -8 -20 -32 -30 -52 -15 -28 -16 -40 -8 -54 11 -17 14
-16 42 12 32 33 43 80 22 98 -10 7 -17 6 -26 -4z"/>
<path d="M1493 1070 c-12 -11 -29 -20 -38 -20 -9 0 -15 -9 -15 -26 0 -14 -4
-23 -9 -20 -5 3 -14 0 -20 -8 -9 -10 -8 -15 3 -19 11 -4 13 -1 9 11 -5 13 -3
14 6 6 10 -9 10 -17 2 -32 -13 -24 -14 -35 -3 -28 4 2 8 -4 8 -15 0 -22 -7
-24 -24 -7 -7 7 -12 8 -12 4 0 -4 10 -16 23 -27 12 -10 16 -18 10 -19 -15 0
-18 -30 -3 -30 6 0 10 -5 10 -11 0 -6 -6 -9 -13 -6 -10 4 -14 -15 -16 -79 -3
-93 2 -119 25 -128 9 -4 12 -2 8 5 -4 6 -1 15 5 19 18 10 62 0 68 -16 3 -8 12
-14 20 -14 10 0 12 -6 8 -20 -4 -11 -2 -20 4 -20 6 0 11 16 11 36 0 22 4 33
10 29 6 -4 8 -15 5 -26 -5 -13 -2 -19 10 -19 11 0 15 6 10 19 -3 11 1 26 11
36 15 14 15 18 3 26 -12 8 -12 10 1 19 13 9 13 11 0 20 -8 5 -20 10 -27 10
-21 0 -33 74 -35 213 0 31 -2 36 -14 26 -16 -13 -19 -7 -28 58 -4 27 -2 43 6
45 6 2 9 10 7 16 -3 9 -11 7 -26 -8z"/>
<path d="M5650 1059 c0 -5 5 -7 10 -4 6 3 10 8 10 11 0 2 -4 4 -10 4 -5 0 -10
-5 -10 -11z"/>
<path d="M1536 1050 c3 -3 16 -5 29 -5 14 -1 22 2 19 5 -3 3 -16 5 -29 5 -14
1 -22 -2 -19 -5z"/>
<path d="M2788 1042 c-22 -4 -23 -16 -3 -36 8 -8 15 -19 15 -25 0 -5 11 -21
25 -35 14 -14 25 -34 25 -46 0 -11 4 -20 9 -20 5 0 12 -11 15 -25 4 -14 11
-25 16 -25 14 0 12 -27 -2 -33 -7 -3 -3 -6 10 -6 12 -1 25 -9 28 -18 3 -10 9
-27 14 -38 5 -11 11 -29 15 -40 5 -15 8 -16 14 -6 6 9 10 5 15 -16 11 -49 41
-103 53 -98 8 3 15 -13 19 -46 5 -33 10 -46 15 -37 8 12 13 4 10 -14 0 -4 6
-5 14 -2 10 4 15 0 15 -14 0 -11 7 -25 15 -32 8 -7 15 -19 15 -27 0 -7 8 -17
18 -20 27 -11 43 -31 40 -50 -2 -10 7 -22 22 -30 14 -7 21 -13 17 -13 -12 0
127 -136 152 -150 12 -6 21 -17 21 -25 0 -8 7 -15 15 -15 8 0 15 -7 15 -15 0
-8 14 -24 30 -37 17 -12 30 -28 30 -35 0 -9 15 -13 50 -13 49 0 59 6 41 25
-11 12 -62 141 -60 152 1 4 0 10 -1 13 -1 3 -3 20 -5 39 -2 18 -8 37 -15 41
-7 4 -10 13 -6 18 14 23 46 -22 57 -80 7 -32 18 -59 26 -62 14 -6 13 18 -4 78
-4 15 -2 18 13 12 10 -4 15 -4 11 0 -9 10 12 34 29 34 8 0 20 -12 27 -27 14
-33 52 -74 61 -66 3 3 -4 17 -14 31 -12 15 -20 40 -20 64 0 54 51 108 102 108
78 0 142 -83 119 -153 -16 -46 -44 -67 -96 -69 -48 -2 -51 -12 -6 -21 16 -3
36 -13 45 -22 9 -10 22 -15 30 -12 8 3 18 -8 26 -28 7 -19 18 -31 23 -28 6 3
15 -1 21 -9 6 -8 21 -20 33 -26 28 -15 207 -16 198 -1 -4 6 -9 8 -12 5 -3 -3
-20 6 -37 19 -17 14 -36 29 -42 34 -6 5 -23 6 -39 3 -19 -3 -26 -1 -21 6 4 7
-6 13 -28 17 -26 5 -33 11 -29 25 3 10 0 21 -6 24 -8 5 -8 13 1 29 22 42 5
117 -26 117 -8 0 -27 20 -43 45 -21 34 -37 48 -65 55 -45 13 -59 30 -24 30 14
0 26 -4 26 -10 0 -5 7 -6 17 -3 12 5 14 3 8 -7 -5 -9 -4 -11 4 -6 14 9 5 26
-15 26 -22 0 -17 17 8 23 12 4 28 1 35 -5 9 -8 13 -7 13 2 0 10 3 10 15 0 9
-7 15 -20 14 -29 -4 -45 2 -61 22 -61 18 0 20 5 16 26 -6 32 17 43 42 20 10
-9 25 -16 35 -16 16 0 15 3 -4 30 -12 17 -28 30 -36 30 -8 0 -14 4 -14 9 0 11
-52 29 -95 34 -16 2 -39 8 -50 14 -18 11 -18 12 10 19 37 9 44 19 36 53 -10
35 -70 63 -148 69 -53 4 -68 0 -112 -24 -51 -27 -104 -82 -134 -139 -33 -63
-180 -195 -217 -195 -22 0 -52 36 -75 90 -11 25 -32 66 -47 91 -15 25 -28 48
-28 51 0 7 -156 270 -170 285 -5 7 -10 17 -10 23 0 6 -21 48 -48 94 -50 88
-95 135 -124 128z m914 -668 c10 -6 10 -4 -1 9 -7 9 -9 17 -3 17 18 0 21 -28
4 -42 -51 -42 -50 -42 -53 5 -3 33 -1 43 9 40 6 -3 12 1 13 8 0 8 4 4 9 -7 5
-12 15 -26 22 -30z m43 26 c3 -5 2 -10 -4 -10 -5 0 -13 5 -16 10 -3 6 -2 10 4
10 5 0 13 -4 16 -10z m-115 -15 c0 -8 -4 -15 -10 -15 -5 0 -7 7 -4 15 4 8 8
15 10 15 2 0 4 -7 4 -15z m-16 -80 c-4 -8 -10 -15 -14 -15 -5 0 -11 -8 -13
-17 -4 -15 -5 -14 -6 3 -1 20 16 44 31 44 4 0 5 -7 2 -15z m333 -137 c-3 -8
-6 -5 -6 6 -1 11 2 17 5 13 3 -3 4 -12 1 -19z"/>
<path d="M3660 376 c0 -2 6 -9 14 -15 11 -9 16 -9 22 0 4 8 3 9 -4 5 -7 -4
-12 -2 -12 3 0 6 -4 11 -10 11 -5 0 -10 -2 -10 -4z"/>
<path d="M1521 994 c0 -11 3 -14 6 -6 3 7 2 16 -1 19 -3 4 -6 -2 -5 -13z"/>
<path d="M7090 990 c0 -5 7 -10 15 -10 8 0 15 5 15 10 0 6 -7 10 -15 10 -8 0
-15 -4 -15 -10z"/>
<path d="M1370 955 c-7 -8 -16 -12 -21 -9 -5 3 -9 0 -9 -5 0 -17 15 -13 35 9
10 11 16 20 13 20 -3 0 -11 -7 -18 -15z"/>
<path d="M338 881 c11 -7 11 -9 -2 -14 -9 -4 -16 -14 -16 -24 1 -15 4 -15 20
6 25 29 25 41 3 41 -14 0 -15 -2 -5 -9z"/>
<path d="M1388 883 c7 -3 16 -2 19 1 4 3 -2 6 -13 5 -11 0 -14 -3 -6 -6z"/>
<path d="M7305 880 c3 -5 0 -22 -8 -37 -8 -18 -14 -73 -16 -153 -1 -69 -6
-126 -12 -128 -5 -2 -9 -33 -9 -68 0 -63 -12 -85 -23 -42 -11 42 -20 9 -23
-92 -3 -69 0 -118 10 -153 8 -29 18 -87 22 -129 l6 -78 134 0 134 0 -1 38 c-1
31 -2 33 -8 12 -12 -43 -18 -9 -18 98 0 75 3 102 12 98 9 -3 9 3 1 27 -6 18
-15 37 -19 44 -4 6 -1 13 5 16 10 3 10 7 -1 20 -9 11 -10 17 -2 17 17 0 13 24
-7 37 -13 8 -18 21 -16 47 2 25 -2 38 -14 45 -15 9 -14 10 6 11 27 0 29 20 2
27 -25 7 -26 21 -2 39 15 13 15 14 -8 11 -22 -2 -25 2 -25 29 0 23 -4 30 -14
26 -10 -4 -12 -1 -6 8 5 8 -1 19 -16 31 -19 15 -20 19 -7 19 9 0 20 -4 23 -10
3 -5 11 -10 18 -10 6 0 -4 11 -23 25 -18 13 -37 22 -41 19 -5 -3 -6 2 -3 10 3
9 10 13 15 10 5 -3 6 2 3 11 -4 9 -9 14 -11 11 -8 -8 -40 29 -35 42 2 6 -1 12
-8 12 -9 0 -10 11 -6 35 5 23 3 35 -4 35 -6 0 -8 -4 -5 -10z"/>
<path d="M2270 870 c-12 -7 -13 -13 -3 -28 9 -15 9 -22 0 -31 -7 -7 -8 -11 0
-11 6 0 16 7 24 16 10 13 10 17 -1 24 -11 7 -11 11 -1 24 15 18 4 21 -19 6z"/>
<path d="M2320 871 c0 -5 9 -7 20 -4 11 3 20 7 20 9 0 2 -9 4 -20 4 -11 0 -20
-4 -20 -9z"/>
<path d="M2315 799 c-4 -6 -4 -13 -1 -16 3 -4 6 -1 6 5 0 6 8 13 18 15 15 4
15 5 0 6 -9 0 -20 -4 -23 -10z"/>
<path d="M2080 760 c0 -23 5 -30 19 -30 11 0 21 -5 23 -12 3 -7 10 -8 17 -4
11 7 11 10 0 17 -7 4 -11 11 -7 14 3 3 13 -1 22 -10 9 -9 21 -15 27 -13 20 7
-35 56 -68 62 -31 5 -33 4 -33 -24z"/>
<path d="M1062 699 c-7 -12 -11 -24 -8 -27 6 -6 35 27 36 41 0 14 -15 7 -28
-14z"/>
<path d="M1017 683 c-4 -3 -7 -11 -7 -17 0 -6 5 -5 12 2 6 6 9 14 7 17 -3 3
-9 2 -12 -2z"/>
<path d="M1079 664 c-11 -14 -11 -18 4 -29 22 -16 21 -21 -3 -47 -10 -12 -17
-25 -14 -30 3 -5 1 -15 -6 -23 -7 -9 -8 -15 0 -20 5 -3 10 2 10 11 0 13 3 15
11 7 13 -13 -9 -53 -28 -53 -7 0 -13 -7 -13 -15 0 -12 4 -14 20 -5 10 6 23 18
29 28 5 9 13 13 17 9 4 -4 -1 -13 -11 -20 -12 -10 -16 -23 -13 -44 4 -30 4
-31 -19 -16 -21 14 -23 14 -23 -1 0 -9 5 -16 12 -16 6 0 2 -8 -10 -18 -26 -23
-12 -51 26 -53 24 -2 25 -2 4 -6 -20 -4 -21 -7 -10 -20 10 -12 9 -17 -5 -28
-9 -7 -17 -17 -17 -24 0 -6 -9 -11 -20 -11 -11 0 -20 -5 -20 -11 0 -6 -7 -9
-15 -5 -8 3 -15 1 -15 -4 0 -6 7 -10 16 -10 33 0 6 -23 -31 -27 -22 -2 -41 -5
-42 -7 -2 -1 -4 -20 -5 -42 -4 -48 -11 -54 -56 -43 -48 11 -53 4 -8 -11 20 -6
36 -16 36 -20 0 -5 -7 -7 -15 -4 -8 4 -15 1 -15 -5 0 -6 7 -11 15 -11 8 0 15
-4 15 -10 0 -5 -6 -10 -12 -10 -9 0 -8 -4 2 -10 8 -5 70 -10 138 -10 l122 0 0
40 c0 23 -5 40 -11 40 -14 0 -5 132 11 176 14 36 14 113 -1 184 -6 30 -10 85
-9 122 1 54 -2 68 -17 77 -15 9 -15 12 -4 20 8 5 9 11 3 15 -5 3 -16 -1 -23
-10z m31 -114 c0 -5 -2 -10 -4 -10 -3 0 -8 5 -11 10 -3 6 -1 10 4 10 6 0 11
-4 11 -10z m-30 -185 c0 -2 -9 -9 -20 -15 -16 -9 -20 -8 -20 5 0 8 9 15 20 15
11 0 20 -2 20 -5z m-50 -145 c0 -5 -5 -10 -11 -10 -5 0 -7 5 -4 10 3 6 8 10
11 10 2 0 4 -4 4 -10z m-65 -60 c-3 -5 -12 -10 -18 -10 -7 0 -6 4 3 10 19 12
23 12 15 0z"/>
<path d="M5482 647 c-24 -7 -31 -14 -27 -26 5 -12 3 -13 -5 -4 -9 8 -21 6 -49
-10 -20 -12 -40 -27 -44 -34 -4 -7 -13 -13 -20 -13 -15 0 -90 -60 -83 -67 2
-2 22 5 45 16 22 12 47 21 56 21 19 0 20 -24 0 -40 -8 -7 -15 -19 -15 -27 0
-8 -11 -33 -24 -57 -13 -23 -27 -57 -31 -74 -3 -18 -11 -32 -16 -32 -5 0 -11
-11 -15 -25 -3 -14 -10 -22 -15 -19 -5 3 -9 0 -9 -6 0 -7 -7 -26 -15 -43 -28
-62 -66 -177 -60 -186 3 -5 -1 -11 -7 -14 -7 -2 24 -5 70 -6 53 -1 82 2 82 9
0 6 11 21 25 34 13 13 22 26 18 29 -9 10 10 8 26 -2 8 -5 10 -14 6 -22 -7 -12
-6 -12 6 -1 12 11 12 15 -2 25 -12 9 -14 18 -8 35 5 13 14 20 19 17 16 -10 40
14 40 39 0 17 2 18 10 6 8 -12 10 -11 10 8 0 12 4 22 9 22 18 0 23 40 7 56
-22 22 -20 41 2 21 15 -14 21 -15 36 -4 10 7 17 20 16 28 -4 25 0 40 8 35 5
-3 16 4 26 15 17 20 17 21 -5 14 -37 -12 -17 18 27 39 86 40 157 151 123 192
-23 28 -98 65 -125 62 -26 -3 -27 -5 -31 -78 -4 -75 -18 -129 -37 -142 -6 -4
-5 -12 2 -21 10 -12 9 -16 -3 -21 -10 -3 -15 1 -15 13 0 10 -7 24 -15 31 -13
10 -15 9 -15 -8 0 -15 -5 -20 -15 -16 -8 4 -15 1 -15 -5 0 -6 -7 -11 -16 -11
-13 0 -15 -8 -12 -40 2 -28 0 -40 -9 -40 -9 0 -11 -8 -7 -24 3 -13 1 -27 -5
-30 -6 -4 -11 -1 -11 6 0 8 -10 14 -21 15 -17 2 -19 -1 -10 -10 13 -13 15 -57
2 -57 -5 0 -12 -15 -16 -32 -5 -23 -9 -27 -12 -15 -6 24 -20 21 -27 -5 -8 -34
-25 -9 -19 29 3 18 9 30 14 28 4 -3 11 17 15 44 4 28 11 48 16 45 5 -3 12 3
15 14 4 17 8 18 18 9 7 -7 10 -16 7 -22 -2 -5 1 -5 7 1 7 6 15 30 18 53 3 22
9 39 13 36 10 -6 45 35 60 72 7 18 16 30 21 27 5 -3 7 -9 5 -13 -3 -4 0 -13 6
-21 8 -12 9 -12 5 2 -3 9 -1 19 6 21 8 3 7 10 -5 24 -14 15 -15 22 -6 31 17
17 33 15 18 -3 -9 -10 -9 -15 -1 -15 6 0 11 3 12 8 1 11 7 44 14 85 8 40 7 40
-43 24z m-59 -66 c-12 -10 -20 -21 -17 -24 3 -2 -2 -7 -11 -10 -24 -10 -18 10
11 32 33 26 47 27 17 2z m83 -273 c4 -5 1 -15 -5 -21 -8 -8 -11 -6 -11 7 0 9
-4 15 -8 12 -4 -2 -14 -1 -21 3 -9 6 -4 9 13 9 15 0 29 -5 32 -10z"/>
<path d="M2110 600 c0 -19 3 -21 12 -12 9 9 9 15 0 24 -9 9 -12 7 -12 -12z"/>
<path d="M1360 592 c0 -4 20 -12 45 -18 25 -6 45 -9 45 -8 0 1 -7 10 -16 18
-16 16 -74 22 -74 8z"/>
<path d="M1515 580 c3 -5 8 -10 11 -10 2 0 4 5 4 10 0 6 -5 10 -11 10 -5 0 -7
-4 -4 -10z"/>
<path d="M1562 545 c-12 -14 -26 -25 -32 -25 -5 0 -10 -9 -10 -20 0 -11 6 -20
13 -20 7 0 19 -15 27 -32 7 -18 15 -36 18 -40 2 -5 -3 -8 -12 -8 -13 0 -16
-14 -16 -80 0 -64 3 -80 15 -80 8 0 15 -7 15 -15 0 -8 -4 -15 -10 -15 -5 0
-10 -6 -10 -13 0 -21 -33 -34 -80 -31 -68 5 -76 -5 -50 -56 12 -23 17 -39 11
-36 -5 3 -12 -2 -14 -11 -4 -17 -5 -17 -6 0 -2 35 -21 15 -21 -23 0 -36 3 -40
24 -40 13 0 27 6 29 13 4 9 6 9 6 0 1 -18 21 -16 21 2 0 8 4 15 10 15 5 0 7
-7 4 -15 -4 -8 -2 -15 4 -15 6 0 13 6 15 13 4 9 6 9 6 0 1 -9 23 -13 76 -13
l76 0 -7 103 c-14 222 -19 262 -31 262 -6 0 -15 3 -19 8 -4 4 0 7 9 7 27 0 30
19 11 96 -20 88 -40 106 -72 69z m35 -357 c-3 -8 -6 -5 -6 6 -1 11 2 17 5 13
3 -3 4 -12 1 -19z m-47 -48 c0 -5 -7 -10 -15 -10 -8 0 -15 -4 -15 -10 0 -5 7
-10 15 -10 8 0 15 -4 15 -10 0 -12 2 -12 -60 1 -27 6 -50 15 -50 19 0 5 19 13
43 18 58 13 67 14 67 2z m-43 -82 c-3 -8 -6 -5 -6 6 -1 11 2 17 5 13 3 -3 4
-12 1 -19z m133 6 c0 -8 -4 -12 -10 -9 -5 3 -10 10 -10 16 0 5 5 9 10 9 6 0
10 -7 10 -16z"/>
<path d="M2075 560 c-3 -5 -1 -10 4 -10 6 0 11 5 11 10 0 6 -2 10 -4 10 -3 0
-8 -4 -11 -10z"/>
<path d="M2121 561 c-10 -7 -7 -9 12 -8 14 1 23 5 20 10 -6 9 -15 9 -32 -2z"/>
<path d="M2004 522 c0 -34 2 -36 17 -24 13 11 14 19 5 38 -16 34 -24 30 -22
-14z"/>
<path d="M2191 544 c0 -11 3 -14 6 -6 3 7 2 16 -1 19 -3 4 -6 -2 -5 -13z"/>
<path d="M1431 534 c0 -11 3 -14 6 -6 3 7 2 16 -1 19 -3 4 -6 -2 -5 -13z"/>
<path d="M5340 510 c0 -5 5 -10 10 -10 6 0 10 5 10 10 0 6 -4 10 -10 10 -5 0
-10 -4 -10 -10z"/>
<path d="M6791 504 c0 -11 3 -14 6 -6 3 7 2 16 -1 19 -3 4 -6 -2 -5 -13z"/>
<path d="M7221 494 c0 -11 3 -14 6 -6 3 7 2 16 -1 19 -3 4 -6 -2 -5 -13z"/>
<path d="M5310 489 c0 -5 5 -7 10 -4 6 3 10 8 10 11 0 2 -4 4 -10 4 -5 0 -10
-5 -10 -11z"/>
<path d="M1424 481 c-9 -9 -4 -81 6 -81 6 0 10 9 10 20 0 17 7 20 40 20 33 0
40 4 40 19 0 15 -9 20 -46 23 -25 2 -47 1 -50 -1z"/>
<path d="M6800 468 c0 -9 5 -20 10 -23 13 -8 13 5 0 25 -8 13 -10 13 -10 -2z"/>
<path d="M6857 460 c4 -14 0 -20 -11 -20 -23 0 -36 -39 -23 -67 14 -31 29 -29
17 2 -5 14 -6 25 -1 25 15 0 31 -26 33 -53 1 -14 6 -23 11 -20 5 3 6 17 2 32
-4 14 -9 40 -11 56 -4 23 -2 26 5 15 9 -13 11 -13 11 2 0 26 -11 48 -25 48 -8
0 -11 -8 -8 -20z"/>
<path d="M2007 463 c-8 -13 2 -43 14 -43 10 0 10 8 0 34 -5 12 -10 16 -14 9z"/>
<path d="M2040 444 c0 -8 5 -12 10 -9 6 3 10 10 10 16 0 5 -4 9 -10 9 -5 0
-10 -7 -10 -16z"/>
<path d="M778 393 c7 -3 16 -2 19 1 4 3 -2 6 -13 5 -11 0 -14 -3 -6 -6z"/>
<path d="M7172 387 c-8 -10 -7 -17 7 -29 16 -14 18 -13 18 14 0 30 -8 35 -25
15z"/>
<path d="M4101 348 c0 -7 4 -22 9 -33 8 -18 9 -17 9 7 1 15 -3 30 -9 33 -5 3
-10 0 -9 -7z"/>
<path d="M910 330 c0 -5 5 -10 10 -10 6 0 10 5 10 10 0 6 -4 10 -10 10 -5 0
-10 -4 -10 -10z"/>
<path d="M1410 280 c0 -22 5 -40 10 -40 6 0 10 18 10 40 0 22 -4 40 -10 40 -5
0 -10 -18 -10 -40z"/>
<path d="M7180 313 c0 -5 5 -15 10 -23 8 -12 10 -11 10 8 0 12 -4 22 -10 22
-5 0 -10 -3 -10 -7z"/>
<path d="M1440 260 c0 -21 2 -22 50 -24 25 -1 30 3 30 22 0 19 -5 22 -40 22
-33 0 -40 -3 -40 -20z"/>
<path d="M4121 264 c0 -11 3 -14 6 -6 3 7 2 16 -1 19 -3 4 -6 -2 -5 -13z"/>
<path d="M7600 212 c0 -22 5 -32 16 -32 8 0 12 -4 9 -10 -3 -5 -3 -10 0 -10 8
0 39 30 34 33 -2 1 -16 13 -31 26 l-28 24 0 -31z"/>
<path d="M1430 221 c0 -21 32 -41 47 -29 9 7 18 7 28 -2 9 -7 19 -10 22 -6 13
12 -21 26 -49 20 -19 -4 -29 0 -37 13 -7 12 -10 13 -11 4z"/>
<path d="M877 201 c-3 -14 -1 -18 9 -14 8 3 14 11 14 19 0 21 -17 17 -23 -5z"/>
<path d="M3110 215 c0 -5 5 -17 10 -25 5 -8 10 -10 10 -5 0 6 -5 17 -10 25 -5
8 -10 11 -10 5z"/>
<path d="M5079 193 c-13 -16 -12 -17 4 -4 9 7 17 15 17 17 0 8 -8 3 -21 -13z"/>
<path d="M4150 186 c0 -8 4 -17 9 -20 5 -4 7 3 4 14 -6 23 -13 26 -13 6z"/>
<path d="M3738 163 c7 -3 16 -2 19 1 4 3 -2 6 -13 5 -11 0 -14 -3 -6 -6z"/>
<path d="M7577 149 c4 -13 8 -18 11 -10 2 7 -1 18 -6 23 -8 8 -9 4 -5 -13z"/>
<path d="M835 150 c11 -5 27 -9 35 -9 9 0 8 4 -5 9 -11 5 -27 9 -35 9 -9 0 -8
-4 5 -9z"/>
<path d="M5019 143 c-13 -16 -12 -17 4 -4 16 13 21 21 13 21 -2 0 -10 -8 -17
-17z"/>
<path d="M443 133 c9 -2 23 -2 30 0 6 3 -1 5 -18 5 -16 0 -22 -2 -12 -5z"/>
<path d="M7512 110 c0 -19 2 -27 5 -17 2 9 2 25 0 35 -3 9 -5 1 -5 -18z"/>
<path d="M1976 113 c-11 -12 -6 -50 9 -63 21 -18 28 -7 20 29 -7 32 -18 45
-29 34z"/>
<path d="M413 103 c9 -2 23 -2 30 0 6 3 -1 5 -18 5 -16 0 -22 -2 -12 -5z"/>
<path d="M3600 100 c0 -5 5 -10 10 -10 6 0 10 5 10 10 0 6 -4 10 -10 10 -5 0
-10 -4 -10 -10z"/>
<path d="M7600 89 c0 -11 -4 -17 -10 -14 -12 8 -13 -5 -1 -23 6 -10 10 -8 14
10 6 22 7 22 21 3 9 -11 16 -14 16 -7 0 6 -9 21 -20 32 l-20 20 0 -21z"/>
<path d="M3115 80 c-25 -27 -12 -37 14 -11 12 12 21 23 21 26 0 11 -18 4 -35
-15z"/>
<path d="M408 73 c6 -2 18 -2 25 0 6 3 1 5 -13 5 -14 0 -19 -2 -12 -5z"/>
<path d="M3620 60 c0 -5 10 -10 23 -10 18 0 19 2 7 10 -19 13 -30 13 -30 0z"/>
<path d="M4230 55 c27 -35 50 -55 61 -55 16 0 -6 25 -45 53 -27 19 -29 19 -16
2z"/>
<path d="M400 50 c0 -5 5 -10 11 -10 5 0 7 5 4 10 -3 6 -8 10 -11 10 -2 0 -4
-4 -4 -10z"/>
<path d="M3126 44 c-11 -29 -6 -44 15 -44 17 0 19 3 10 14 -6 7 -9 21 -5 30 3
9 2 16 -4 16 -5 0 -13 -7 -16 -16z"/>
<path d="M4909 24 c-13 -14 -17 -23 -9 -19 13 5 46 45 37 45 -2 0 -14 -11 -28
-26z"/>
<path d="M3165 31 c-3 -6 4 -15 15 -21 20 -11 21 -10 10 9 -12 23 -16 25 -25
12z"/>
<path d="M2020 16 c0 -9 7 -16 16 -16 17 0 14 22 -4 28 -7 2 -12 -3 -12 -12z"/>
<path d="M3075 20 c-3 -5 1 -10 9 -10 9 0 16 5 16 10 0 6 -4 10 -9 10 -6 0
-13 -4 -16 -10z"/>
<path d="M3637 23 c-12 -11 -8 -23 8 -23 8 0 15 7 15 15 0 16 -12 20 -23 8z"/>
<path d="M443 13 c9 -2 23 -2 30 0 6 3 -1 5 -18 5 -16 0 -22 -2 -12 -5z"/>
</g>
</svg>
